<svg xmlns="http://www.w3.org/2000/svg" width="55" height="56" viewBox="0 0 55 56" fill="none"><g clip-path="url(#clip0_806_9192)"><path d="M18.978 48.7481C7.40763 46.293 3.63407 35.7647 5.95836 25.0208C7.82716 16.3823 15.7238 10.6581 25.2083 8.97917C36.9498 6.90068 47.3959 17.1586 48.52 27.9229C49.8197 40.3698 32.2947 51.5737 18.978 48.7481Z" fill="#E6EFFF"></path><path d="M9.26155 11.3885C9.21293 11.138 9.37899 10.9 9.63091 10.8592L41.306 5.73492C41.553 5.69497 41.7902 5.85977 41.8391 6.10521L49.9345 46.7446L20.7306 51.4759C18.7476 51.7972 16.8438 50.4683 16.4611 48.4958L9.26155 11.3885Z" fill="#FFE0A0"></path><path d="M46.6527 30.2916L32.0836 46.104L49.042 42.8957L46.6527 30.2916Z" fill="#FFCC60"></path><path d="M20.728 44.6148L51.4934 39.6305L52.0509 42.688C52.4141 44.6802 51.0881 46.5577 49.0891 46.8816L21.9432 51.2795L20.728 44.6148Z" fill="#FFCC60"></path><path d="M15.6245 44.4083L21.8048 43.3461L22.5811 47.8625C22.8744 49.5692 21.7287 51.1905 20.022 51.4838C18.3154 51.7771 16.6941 50.6314 16.4008 48.9247L15.6245 44.4083Z" fill="#FFE0A0"></path><path d="M16.1395 47.9375C16.1395 47.9375 19.5866 45.0917 20.2645 42.4375C20.6836 40.7966 20.5494 37.1039 20.8545 33.9582C21.132 31.0965 21.1812 28.9166 21.1812 28.9166L17.6461 32.5832L14.2086 38.3124L16.1395 47.9375Z" fill="#FFCC60"></path><line x1="17.4252" y1="25.6301" x2="25.0985" y2="24.2771" stroke="#B75327" stroke-width="0.916667" stroke-linecap="round"></line><line x1="17.8232" y1="27.8869" x2="28.2047" y2="26.0564" stroke="#B75327" stroke-width="0.916667" stroke-linecap="round"></line><path d="M18.5394 31.9493L42.6252 27.5416" stroke="#B75327" stroke-width="0.916667" stroke-linecap="round"></path><path d="M19.0171 34.6575L41.0211 30.7499" stroke="#B75327" stroke-width="0.916667" stroke-linecap="round"></path><line x1="19.4946" y1="37.3657" x2="33.0357" y2="34.9781" stroke="#B75327" stroke-width="0.916667" stroke-linecap="round"></line><line x1="20.1411" y1="41.5881" x2="28.2657" y2="40.1555" stroke="#B75327" stroke-width="0.916667" stroke-linecap="round"></line><path d="M26.9506 11.7269C27.2096 10.8137 28.4636 10.7133 28.8669 11.5736C29.1165 12.1138 29.7741 12.327 30.2941 12.0362C31.1229 11.5735 32.0802 12.3894 31.7577 13.2816C31.5534 13.8415 31.8684 14.4572 32.4387 14.6181C33.3538 14.8772 33.4542 16.1319 32.5919 16.5332C32.0523 16.7853 31.8414 17.4406 32.1321 17.961C32.5946 18.7903 31.7792 19.7481 30.885 19.4232C30.3254 19.2187 29.7101 19.5338 29.5496 20.1068C29.2905 21.02 28.0365 21.1203 27.6332 20.2601C27.3836 19.7199 26.7261 19.5067 26.2061 19.7975C25.3773 20.2602 24.42 19.4443 24.7424 18.5521C24.9467 17.9922 24.6318 17.3765 24.0614 17.2156C23.1464 16.9565 23.046 15.7018 23.9082 15.3005C24.4479 15.0484 24.6586 14.3907 24.3681 13.8727C23.9056 13.0434 24.7207 12.0833 25.6152 12.4105C26.1748 12.615 26.79 12.2999 26.9506 11.7269Z" fill="#FB658D"></path><path d="M28.4836 18.3109C29.7846 18.2068 30.7549 17.0677 30.6509 15.7667C30.5468 14.4657 29.4077 13.4954 28.1067 13.5995C26.8057 13.7035 25.8353 14.8426 25.9394 16.1436C26.0435 17.4446 27.1826 18.415 28.4836 18.3109Z" fill="#FB658D" stroke="#FEC5D4" stroke-width="0.916667"></path><path d="M13.5207 33.0416L12.1458 25.7083L8.47908 31.8958L3.09644 46.0252C3.02058 46.2244 3.01702 46.447 3.0876 46.6481C4.31502 50.1454 5.75195 52.1511 6.83761 53.4324C7.40064 54.0968 9.19174 53.8607 9.60322 53.0931C11.8296 48.9399 13.8795 48.6258 16.0416 47.25L15.5832 44.9583C19.6301 39.8071 17.574 35.0144 18.1041 33.9583C18.6342 32.9023 19.3461 31.114 20.5273 29.8052C21.3313 28.9143 21.226 27.6098 20.8785 26.746C20.6392 26.1511 19.9501 26.088 19.388 26.3964C18.3694 26.9553 16.809 27.8576 16.4076 28.3486C15.7983 29.0941 13.5207 33.0416 13.5207 33.0416Z" fill="#B67A4B"></path><path d="M13.0966 47.9545L15.5408 45.0922L16.0417 47.25L13.6783 48.6467C13.2327 48.9101 12.7604 48.3482 13.0966 47.9545Z" fill="#A75925"></path><path d="M15.9835 29.375L13.1879 34.536" stroke="#764123" stroke-width="0.916667" stroke-linecap="round"></path><path d="M4.71003 24.4245L5.41712 23.3261C5.50474 23.1887 5.68844 23.1488 5.8241 23.2386L8.68081 25.0794C8.81828 25.167 8.8581 25.3507 8.7683 25.4864L8.06121 26.5847C7.9736 26.7222 7.7899 26.762 7.65423 26.6722L4.79754 24.8314C4.66206 24.7436 4.62242 24.5619 4.71003 24.4245Z" fill="#FFCC60"></path><path d="M22.2415 2.55662L23.1193 1.58933C23.2283 1.46812 23.4161 1.45899 23.5352 1.56985L26.0508 3.85479C26.172 3.96379 26.1811 4.15154 26.0702 4.27062L25.1924 5.23791C25.0834 5.35912 24.8956 5.36824 24.7765 5.25737L22.2609 2.97244C22.1417 2.86358 22.1325 2.67784 22.2415 2.55662Z" fill="#B6D2FF"></path><path d="M9.6623 6.38468L10.5277 3.97189C10.605 3.75593 10.8881 3.70714 11.0327 3.88416L12.9621 6.23712C13.118 6.42699 12.9875 6.71371 12.7416 6.7188L9.94886 6.77876C9.73936 6.78235 9.59249 6.57903 9.6623 6.38468Z" fill="#FFCC60"></path><path d="M48.9734 13.5362L46.5197 12.7947C46.3 12.7285 46.2369 12.4483 46.4063 12.2948L48.658 10.2481C48.8397 10.0828 49.1327 10.1986 49.1503 10.4438L49.3524 13.2299C49.3666 13.4389 49.171 13.596 48.9734 13.5362Z" fill="#B6D2FF"></path><path d="M32.8437 8.06352C33.5168 8.11017 34.1002 7.60235 34.1469 6.92929C34.1935 6.25622 33.6857 5.67278 33.0126 5.62613C32.3396 5.57949 31.7561 6.0873 31.7095 6.76037C31.6628 7.43343 32.1706 8.01687 32.8437 8.06352Z" fill="#FA3E70"></path><path d="M17.4731 11.8012L16.3106 11.2055C16.1652 11.1319 16.1074 10.953 16.1835 10.8091L17.7343 7.78522C17.808 7.6398 17.9869 7.5821 18.1307 7.65812L19.2933 8.25375C19.4387 8.32742 19.4964 8.50631 19.4204 8.65015L17.8695 11.6741C17.7955 11.8175 17.6186 11.8748 17.4731 11.8012Z" fill="#1E6DEB"></path><path d="M43.7692 3.79243L44.8459 3.05217C44.981 2.96033 45.1646 2.99437 45.2562 3.12753L47.1824 5.92579C47.2742 6.06095 47.2402 6.2445 47.107 6.33611L46.0304 7.07637C45.8952 7.16821 45.7117 7.13417 45.62 7.00101L43.6939 4.20276C43.6 4.06782 43.6341 3.88427 43.7692 3.79243Z" fill="#FFCC60"></path><path d="M15.3639 22.133L13.5152 20.3571C13.3511 20.1988 13.4208 19.92 13.6422 19.8609L16.5787 19.0624C16.8145 18.9983 17.0234 19.2361 16.9273 19.4608L15.8395 22.0352C15.7579 22.2247 15.5129 22.2762 15.3639 22.133Z" fill="#FA3E70"></path><path d="M37.427 18.1468C38.1 18.1935 38.6835 17.6857 38.7301 17.0126C38.7768 16.3395 38.2689 15.7561 37.5959 15.7095C36.9228 15.6628 36.3394 16.1706 36.2927 16.8437C36.2461 17.5168 36.7539 18.1002 37.427 18.1468Z" fill="#1E6DEB"></path><path d="M4.42708 15.3968C5.10015 15.4435 5.68359 14.9357 5.73024 14.2626C5.77689 13.5895 5.26907 13.0061 4.59601 12.9595C3.92294 12.9128 3.33951 13.4206 3.29286 14.0937C3.24621 14.7668 3.75402 15.3502 4.42708 15.3968Z" fill="#B6D2FF"></path><path d="M28.4166 43.5833L51.3333 39.9167" stroke="#B75327" stroke-width="0.916667" stroke-linecap="round"></path><path d="M12.1459 26.1667L13.5209 33.5" stroke="#764123" stroke-width="0.916667" stroke-linecap="round"></path></g><defs><clipPath id="clip0_806_9192"><rect width="55" height="55" fill="white" transform="translate(0 0.5)"></rect></clipPath></defs></svg>