<svg xmlns="http://www.w3.org/2000/svg" width="55" height="56" viewBox="0 0 55 56" fill="none"><g clip-path="url(#clip0_807_9853)"><path d="M5.35993 25.1576C-0.768264 37.3069 5.76116 45.7963 16.6176 50.4265C25.3465 54.1493 37.3887 52.0907 45.5742 44.4544C55.7075 35.001 52.6352 18.9893 44.2144 11.1858C34.4774 2.16254 12.4131 11.1746 5.35993 25.1576Z" fill="#E6EFFF"></path><rect x="5.36987" y="8.39312" width="29.3461" height="37.674" rx="1.15445" transform="rotate(-9.52657 5.36987 8.39312)" fill="#FFEBBF"></rect><path d="M15.4251 44.7223L23.136 43.5446C23.5772 43.4772 23.94 43.1615 24.0678 42.7339L33.7467 10.3408C33.9862 9.53933 33.3202 8.75713 32.4908 8.86563L16.2628 10.9884C15.6857 11.0639 15.2551 11.5571 15.2581 12.139L15.4251 44.7223Z" fill="#FFCC60"></path><path d="M6.03296 9.21997L10.8765 15.5664C11.2636 16.0736 11.8996 16.3249 12.5288 16.2193L29.5216 13.3676C30.1378 13.2642 30.6495 12.8349 30.8583 12.246L33.5706 4.59861" stroke="#B75327" stroke-width="0.860181" stroke-linecap="round" stroke-linejoin="round"></path><rect x="15.7964" y="9.56583" width="29.3461" height="37.674" rx="1.15445" transform="rotate(-2.4914 15.7964 9.56583)" fill="#F0F5FF"></rect><rect x="20.082" y="12.9518" width="21.0767" height="1.12317" rx="0.561583" transform="rotate(-2.4914 20.082 12.9518)" fill="#9DC3FF"></rect><rect x="20.2576" y="15.5118" width="21.0767" height="1.12317" rx="0.561583" transform="rotate(-2.4914 20.2576 15.5118)" fill="#9DC3FF"></rect><circle cx="22.0497" cy="21.0035" r="0.991409" transform="rotate(-2.4914 22.0497 21.0035)" fill="#9DC3FF" stroke="#9DC3FF" stroke-width="0.769636"></circle><circle cx="22.2394" cy="25.3615" r="0.991409" transform="rotate(-2.4914 22.2394 25.3615)" stroke="#9DC3FF" stroke-width="0.769636"></circle><circle cx="22.4288" cy="29.7196" r="0.991409" transform="rotate(-2.4914 22.4288 29.7196)" stroke="#9DC3FF" stroke-width="0.769636"></circle><circle cx="22.6185" cy="34.0777" r="0.991409" transform="rotate(-2.4914 22.6185 34.0777)" fill="#9DC3FF" stroke="#9DC3FF" stroke-width="0.769636"></circle><circle cx="22.8085" cy="38.4362" r="0.991409" transform="rotate(-2.4914 22.8085 38.4362)" stroke="#9DC3FF" stroke-width="0.769636"></circle><circle cx="26.4078" cy="20.8139" r="0.991409" transform="rotate(-2.4914 26.4078 20.8139)" stroke="#9DC3FF" stroke-width="0.769636"></circle><circle cx="26.5973" cy="25.1719" r="0.991409" transform="rotate(-2.4914 26.5973 25.1719)" fill="#9DC3FF" stroke="#9DC3FF" stroke-width="0.769636"></circle><circle cx="26.787" cy="29.53" r="0.991409" transform="rotate(-2.4914 26.787 29.53)" stroke="#9DC3FF" stroke-width="0.769636"></circle><circle cx="26.9767" cy="33.8881" r="0.991409" transform="rotate(-2.4914 26.9767 33.8881)" stroke="#9DC3FF" stroke-width="0.769636"></circle><circle cx="27.1666" cy="38.2466" r="0.991409" transform="rotate(-2.4914 27.1666 38.2466)" fill="#9DC3FF" stroke="#9DC3FF" stroke-width="0.769636"></circle><circle cx="30.7657" cy="20.6242" r="0.991409" transform="rotate(-2.4914 30.7657 20.6242)" fill="#9DC3FF" stroke="#9DC3FF" stroke-width="0.769636"></circle><circle cx="30.9554" cy="24.9823" r="0.991409" transform="rotate(-2.4914 30.9554 24.9823)" stroke="#9DC3FF" stroke-width="0.769636"></circle><circle cx="31.1451" cy="29.3404" r="0.991409" transform="rotate(-2.4914 31.1451 29.3404)" fill="#9DC3FF" stroke="#9DC3FF" stroke-width="0.769636"></circle><circle cx="31.3346" cy="33.6985" r="0.991409" transform="rotate(-2.4914 31.3346 33.6985)" fill="#9DC3FF" stroke="#9DC3FF" stroke-width="0.769636"></circle><circle cx="31.5248" cy="38.057" r="0.991409" transform="rotate(-2.4914 31.5248 38.057)" fill="#9DC3FF" stroke="#9DC3FF" stroke-width="0.769636"></circle><circle cx="35.1244" cy="20.4348" r="0.991409" transform="rotate(-2.4914 35.1244 20.4348)" fill="#9DC3FF" stroke="#9DC3FF" stroke-width="0.769636"></circle><circle cx="35.3141" cy="24.7929" r="0.991409" transform="rotate(-2.4914 35.3141 24.7929)" fill="#9DC3FF" stroke="#9DC3FF" stroke-width="0.769636"></circle><circle cx="35.5035" cy="29.151" r="0.991409" transform="rotate(-2.4914 35.5035 29.151)" fill="#9DC3FF" stroke="#9DC3FF" stroke-width="0.769636"></circle><circle cx="35.6932" cy="33.5092" r="0.991409" transform="rotate(-2.4914 35.6932 33.5092)" fill="#9DC3FF" stroke="#9DC3FF" stroke-width="0.769636"></circle><circle cx="35.8829" cy="37.8674" r="0.991409" transform="rotate(-2.4914 35.8829 37.8674)" fill="#9DC3FF" stroke="#9DC3FF" stroke-width="0.769636"></circle><circle cx="39.4825" cy="20.2452" r="0.991409" transform="rotate(-2.4914 39.4825 20.2452)" stroke="#9DC3FF" stroke-width="0.769636"></circle><circle cx="39.672" cy="24.6033" r="0.991409" transform="rotate(-2.4914 39.672 24.6033)" fill="#9DC3FF" stroke="#9DC3FF" stroke-width="0.769636"></circle><circle cx="39.8617" cy="28.9615" r="0.991409" transform="rotate(-2.4914 39.8617 28.9615)" fill="#9DC3FF" stroke="#9DC3FF" stroke-width="0.769636"></circle><circle cx="40.0514" cy="33.3195" r="0.991409" transform="rotate(-2.4914 40.0514 33.3195)" fill="#9DC3FF" stroke="#9DC3FF" stroke-width="0.769636"></circle><circle cx="40.2411" cy="37.6777" r="0.991409" transform="rotate(-2.4914 40.2411 37.6777)" fill="#9DC3FF" stroke="#9DC3FF" stroke-width="0.769636"></circle><path d="M34.7447 46.7124L25.0525 46.9032C25.0525 46.9032 30.1575 21.2248 31.2548 19.966C32.3522 18.7072 34.789 19.7238 34.789 19.7238L34.7447 46.7124Z" fill="#9DC3FF"></path><path d="M31.3147 19.8745C31.4909 18.865 32.4522 18.1895 33.4617 18.3657L51.957 21.5945C52.9665 21.7707 53.642 22.7319 53.4657 23.7414L48.978 49.4487C48.8017 50.4582 47.8405 51.1337 46.831 50.9575L28.3357 47.7287C27.3262 47.5525 26.6507 46.5913 26.8269 45.5817L31.3147 19.8745Z" fill="#003D9F"></path><path d="M32.1091 47.1547L52.044 30.3128L48.7086 48.9726C48.6193 49.4724 48.1448 49.8075 47.6439 49.7247L32.1091 47.1547Z" fill="#00307A"></path><path d="M35.0232 38.2499L44.1412 39.8417" stroke="#FFCC60" stroke-width="0.927756" stroke-linecap="round"></path><path d="M36.9045 40.9274L41.4635 41.7232" stroke="#FFCC60" stroke-width="0.927757" stroke-linecap="round"></path><circle cx="40.8839" cy="30.4644" r="5.20644" transform="rotate(9.90249 40.8839 30.4644)" stroke="#FFCC60" stroke-width="0.927757"></circle><ellipse cx="40.8841" cy="30.4644" rx="2.12114" ry="5.20644" transform="rotate(9.90249 40.8841 30.4644)" stroke="#FFCC60" stroke-width="0.927757"></ellipse><line x1="36.447" y1="27.8488" x2="45.9449" y2="29.5068" stroke="#FFCC60" stroke-width="0.927757"></line><path d="M35.8369 31.3451L45.5248 33.0363" stroke="#FFCC60" stroke-width="0.927757"></path><path d="M48.0503 49.8198L28.2947 46.371" stroke="#FFEBBF" stroke-width="0.927757" stroke-linecap="round"></path></g><defs><clipPath id="clip0_807_9853"><rect width="55" height="55" fill="white" transform="translate(0 0.5)"></rect></clipPath></defs></svg>