<svg width="671" height="470" viewBox="0 0 671 470" fill="none" xmlns="http://www.w3.org/2000/svg">
<path d="M571.249 428.882L413.04 429.164C393.649 429.298 373.049 429.365 351.684 429.365C299.682 429.365 252.148 428.935 215.793 428.224H69.4482C69.4482 402.36 97.8986 413.721 105.4 418.287C114.123 423.591 102.891 395.351 120.699 395.351C135.944 395.351 144.667 403.018 144.667 403.018C144.667 403.018 145.083 388.113 159.537 387.898C173.99 387.683 183.169 400.427 194.576 410.914C199.287 415.238 204.95 418.676 210.305 421.295C247.303 420.516 297.011 420.032 351.684 420.032C377.585 420.032 402.358 420.14 425.212 420.341C465.821 420.341 503.008 398.976 513.556 393.618C539.618 380.351 527.272 411.975 527.272 411.975C527.272 411.975 547.361 403.515 561.493 403.582C581.448 403.663 571.249 428.882 571.249 428.882Z" fill="#00A7A7"/>
<path d="M489.159 428.103C489.159 428.103 493.158 392.087 467.123 380.499C467.123 380.499 463.285 419.683 476.276 417.118C481.147 416.151 470.693 406.644 453.649 406.241C453.649 406.241 466.707 428.197 482.569 428.506" stroke="#FFCF2D" stroke-miterlimit="10"/>
<path d="M482.623 428.452C482.623 428.452 484.126 411.975 500.176 406.845C514.67 402.226 489.306 428.049 489.306 428.049" stroke="#FFCF2D" stroke-miterlimit="10"/>
<path d="M122.216 426.948C122.216 426.948 99.2006 411.169 92.7188 385.427C92.7188 385.427 113.09 391.523 121.733 404.495C121.733 404.495 125.276 374.966 133.838 365.029C133.838 365.029 138.468 371.689 139.045 396.371C139.045 396.371 149.539 378.484 157.349 372.71C157.349 372.71 156.276 395.982 150.693 407.866C150.693 407.866 158.759 401.581 164.207 407.745C169.656 413.909 158.973 422.933 158.973 422.933" stroke="#FE5244" stroke-miterlimit="10"/>
<path d="M133.851 365.902C133.851 365.902 134.079 419.696 131.637 426.666" stroke="#FE5244" stroke-miterlimit="10"/>
<path d="M156.598 374.066C156.598 374.066 140.548 415.332 131.637 426.666" stroke="#FE5244" stroke-miterlimit="10"/>
<path d="M150.451 408.054C149.861 410.216 145.795 416.178 144.989 413.613C144.198 411.048 151.512 406.899 153.35 406.214" stroke="#FE5244" stroke-miterlimit="10"/>
<path d="M121.746 404.509C122.833 406.604 126.51 412.485 122.793 412.338C120.364 412.244 122.404 399.903 122.404 399.903" stroke="#FE5244" stroke-miterlimit="10"/>
</svg>
