<?xml version="1.0" encoding="UTF-8" standalone="no"?>
<!DOCTYPE svg PUBLIC "-//W3C//DTD SVG 1.1//EN" "http://www.w3.org/Graphics/SVG/1.1/DTD/svg11.dtd">
<svg width="100%" height="100%" viewBox="0 0 2972 2000" version="1.1" xmlns="http://www.w3.org/2000/svg" xmlns:xlink="http://www.w3.org/1999/xlink" xml:space="preserve" xmlns:serif="http://www.serif.com/" style="fill-rule:evenodd;clip-rule:evenodd;stroke-linejoin:round;stroke-miterlimit:1.41421;">
    <g>
        <rect x="0" y="0" width="2972" height="2000" style="fill:white;fill-rule:nonzero;"/>
        <path d="M2004.89,637.477C2004.89,637.477 1989.86,610.341 2020.01,583.78C2050.16,557.219 2059.04,596.926 2071.89,599.539C2084.74,602.151 2106.94,595.62 2117.39,618.262C2127.85,640.904 2124.63,658.481 2138.13,660.985C2151.63,663.489 2197.78,693.207 2190.38,738.056C2182.98,782.905 2140.04,784.16 2140.04,784.16C2140.04,784.16 1972.87,805.547 1957.84,762.875C1942.8,720.203 1957.42,699.946 1977.45,683.404C1989.77,673.239 2015.42,663.492 2004.89,637.477Z" style="fill:rgb(115,110,110);fill-rule:nonzero;"/>
        <path d="M1869.67,1071.82L1934.32,944.761L1937.93,946.038L1941.69,952.584L1939,1057.52C1939,1057.52 1961.67,1062.02 1982.52,1064.99L1978.11,1094.21L1869.67,1071.82ZM2312.66,900.06L2313.33,900.071C2313.33,900.071 2305.37,852.651 2297.63,836.609C2267.42,774.025 2206.99,771.687 2206.99,771.687C2152.32,762.155 2048.73,767.55 2048.73,767.55C2048.73,767.55 1963.89,768.408 1915.24,776.074C1900.86,778.341 1880.77,791.845 1875.93,800.27L1872.89,801.2C1872.89,801.2 1870.39,805.647 1869.17,807.93L1693.24,1125.77L2116.41,1125.77L2172.88,1130.52C2278.37,1132.37 2311.78,1108.25 2324.13,1100.05C2348.76,1083.69 2325.67,969.645 2312.66,900.06Z" style="fill:rgb(254,204,134);fill-rule:nonzero;"/>
        <path d="M1944.34,772.254C1990.99,768.101 2045.37,767.55 2045.37,767.55C2045.37,767.55 2148.68,762.17 2203.41,771.649C2186.66,787.404 2133.34,830.599 2055.98,826.178C1998.79,822.91 1963.37,794.304 1944.34,772.254Z" style="fill:rgb(254,159,115);fill-rule:nonzero;"/>
        <path d="M2023.43,649.659C2023.43,649.659 2014.36,710.546 2024.59,724.044C2024.59,724.044 2029.6,731.229 2041.58,731.447L2041.58,769.546L2095.34,769.546L2095.34,644.548L2023.43,649.659Z" style="fill:rgb(254,159,115);fill-rule:nonzero;"/>
        <path d="M2041,697.465C2041.22,697.465 2041.43,697.308 2041.48,697.078C2041.53,696.813 2041.36,696.553 2041.1,696.496C2037.94,695.82 2035.96,691.936 2035.38,690.667C2039.86,688.275 2042.6,685.164 2043.51,681.416C2045,675.306 2041.13,669.781 2040.96,669.549C2040.8,669.329 2040.5,669.278 2040.28,669.434C2040.06,669.591 2040,669.897 2040.16,670.117C2040.2,670.171 2043.94,675.521 2042.56,681.191C2041.68,684.759 2038.99,687.726 2034.53,690.007L2034.14,690.208L2034.3,690.62C2034.39,690.861 2036.62,696.539 2040.89,697.455L2041,697.465Z" style="fill:rgb(240,113,98);fill-rule:nonzero;"/>
        <path d="M2041.58,746.772L2041.58,731.447C2041.58,731.447 2067.48,729.922 2083.38,719.908C2083.38,719.908 2061.81,740.648 2041.58,746.772Z" style="fill:rgb(240,113,98);fill-rule:nonzero;"/>
        <path d="M2071.01,671.641C2071.26,671.641 2071.5,671.55 2071.69,671.367C2072.08,670.992 2072.1,670.373 2071.72,669.982C2071.6,669.854 2059.04,657.011 2047.56,666.26C2047.14,666.599 2047.07,667.216 2047.41,667.637C2047.75,668.058 2048.37,668.125 2048.79,667.785C2058.87,659.67 2069.85,670.859 2070.31,671.339C2070.5,671.539 2070.76,671.641 2071.01,671.641Z" style="fill:rgb(226,62,61);fill-rule:nonzero;"/>
        <path d="M2036.96,669.501C2037.24,669.501 2037.51,669.386 2037.71,669.163C2038.06,668.754 2038.01,668.136 2037.61,667.781C2037.24,667.462 2028.52,660 2022.99,664.746C2022.58,665.098 2022.53,665.716 2022.88,666.127C2023.23,666.539 2023.85,666.587 2024.26,666.233C2028.51,662.592 2036.25,669.195 2036.32,669.262C2036.51,669.423 2036.74,669.501 2036.96,669.501Z" style="fill:rgb(226,62,61);fill-rule:nonzero;"/>
        <path d="M2051.42,677.097C2051.42,678.604 2052.64,679.826 2054.15,679.826C2055.66,679.826 2056.88,678.604 2056.88,677.097C2056.88,675.59 2055.66,674.369 2054.15,674.369C2052.64,674.369 2051.42,675.59 2051.42,677.097Z" style="fill-rule:nonzero;"/>
        <path d="M2025.75,677.097C2025.75,678.604 2026.98,679.826 2028.48,679.826C2029.99,679.826 2031.21,678.604 2031.21,677.097C2031.21,675.59 2029.99,674.369 2028.48,674.369C2026.98,674.369 2025.75,675.59 2025.75,677.097Z" style="fill-rule:nonzero;"/>
        <path d="M2084.63,688.775C2084.63,697.224 2091.48,704.074 2099.93,704.074C2108.38,704.074 2115.22,697.224 2115.22,688.775C2115.22,680.325 2108.38,673.476 2099.93,673.476C2091.48,673.476 2084.63,680.325 2084.63,688.775Z" style="fill:rgb(254,159,115);fill-rule:nonzero;"/>
        <path d="M2101.06,698.215C2104.27,698.215 2106.41,695.803 2107.12,693.392C2107.95,690.54 2107,687.768 2104.68,686.329C2101.38,684.28 2098.38,685.478 2096.74,686.503C2097.4,684.875 2098.4,683.683 2099.74,682.952C2102.73,681.308 2106.43,682.509 2106.47,682.521C2106.73,682.607 2107,682.467 2107.09,682.212C2107.17,681.955 2107.04,681.678 2106.78,681.592C2106.61,681.535 2102.63,680.243 2099.26,682.093C2097.32,683.162 2095.99,685.05 2095.33,687.708L2094.9,689.412L2096.15,688.174C2096.3,688.023 2099.91,684.521 2104.16,687.161C2106.51,688.619 2106.72,691.281 2106.18,693.117C2105.62,695.042 2103.92,697.269 2100.98,697.234C2100.71,697.228 2100.49,697.446 2100.48,697.718C2100.48,697.988 2100.7,698.21 2100.97,698.214L2101.06,698.215Z" style="fill:rgb(240,113,98);fill-rule:nonzero;"/>
        <path d="M1940.99,1055.32L1942.95,951.282L1942.6,950.874C1924.6,929.813 1919.85,907.871 1928.47,885.657C1934.95,868.993 1946.94,858.39 1947.06,858.284L1945.2,856.155C1944.69,856.601 1932.63,867.252 1925.88,884.534C1919.66,900.467 1917.11,925.125 1940.11,952.298L1938.16,1055.26L1940.99,1055.32Z" style="fill:rgb(33,17,29);fill-rule:nonzero;"/>
        <path d="M1878.88,1127.25C1883.17,1125.66 1910.94,1127.2 1921.17,1128.44L1921.23,1128.37L1972.77,1135.75L1969.92,1069.82C1969.92,1069.82 1909.23,1062.12 1900.32,1061.77C1891.41,1061.42 1861.12,1070.19 1851.75,1077.61C1834.74,1091.08 1844.99,1092.28 1844.99,1092.28C1828.63,1107.93 1845.48,1107.86 1845.48,1107.86C1829.6,1120.59 1845.48,1123.6 1845.48,1123.6C1837.66,1131.31 1839.22,1135.15 1841.87,1137.01C1843.82,1138.37 1846.33,1138.63 1848.58,1137.87C1853.83,1136.11 1866.98,1131.64 1878.88,1127.25Z" style="fill:rgb(254,159,115);fill-rule:nonzero;"/>
        <path d="M1864.72,1112.69C1865.17,1112.67 1865.6,1112.95 1865.76,1113.4C1865.96,1113.95 1865.67,1114.57 1865.11,1114.77C1857.3,1117.57 1846.16,1124.44 1846.05,1124.51C1845.54,1124.82 1844.88,1124.66 1844.57,1124.16C1844.26,1123.66 1844.42,1123 1844.92,1122.69C1845.38,1122.4 1856.37,1115.63 1864.39,1112.75C1864.5,1112.71 1864.61,1112.69 1864.72,1112.69Z" style="fill:rgb(240,113,98);fill-rule:nonzero;"/>
        <path d="M1864.28,1099.12C1864.79,1099.1 1865.25,1099.45 1865.36,1099.96C1865.49,1100.54 1865.12,1101.11 1864.55,1101.24C1854.68,1103.4 1846.14,1108.71 1846.05,1108.77C1845.55,1109.08 1844.89,1108.93 1844.58,1108.43C1844.26,1107.93 1844.41,1107.27 1844.91,1106.95C1845.27,1106.73 1853.85,1101.39 1864.09,1099.14L1864.28,1099.12Z" style="fill:rgb(240,113,98);fill-rule:nonzero;"/>
        <path d="M1861.41,1083.72C1861.9,1083.7 1862.36,1084.03 1862.48,1084.53C1862.63,1085.1 1862.28,1085.69 1861.7,1085.83C1853.24,1087.94 1845.67,1093.11 1845.59,1093.17C1845.11,1093.5 1844.44,1093.38 1844.1,1092.89C1843.77,1092.4 1843.89,1091.74 1844.38,1091.4C1844.7,1091.18 1852.35,1085.96 1861.18,1083.75L1861.41,1083.72Z" style="fill:rgb(240,113,98);fill-rule:nonzero;"/>
        <path d="M2021.99,1130.52L1927.43,1125.77L1927.58,1057.61L1988.03,1043.95L2021.99,1130.52Z" style="fill:rgb(254,204,134);fill-rule:nonzero;"/>
        <path d="M1927.58,1131.73L1927.33,1131.71C1926.89,1131.62 1926.53,1131.28 1926.4,1130.85C1926.14,1129.97 1926.09,1110.19 1926.09,1093.74C1926.09,1057.37 1926.25,1057.21 1926.72,1056.75C1927.5,1055.96 2002.63,1039.31 2050.38,1029.33C2108.04,1017.29 2179.87,1003.35 2194.62,1005.33C2222.76,1009.12 2241.53,1027.61 2241.72,1027.8C2242.19,1028.27 2242.19,1029.04 2241.72,1029.52C2241.24,1029.99 2240.47,1029.99 2240,1029.52C2239.82,1029.33 2221.59,1011.41 2194.3,1007.74C2167.36,1004.12 1943.49,1055.06 1928.72,1058.57C1928.46,1066.25 1928.47,1127.07 1928.75,1130.22C1928.8,1130.39 1928.8,1130.58 1928.76,1130.76C1928.65,1131.34 1928.14,1131.73 1927.58,1131.73Z" style="fill:rgb(33,17,29);fill-rule:nonzero;"/>
        <path d="M2194.46,1007.75C2193.82,1007.75 2193.29,1007.25 2193.25,1006.61L2185.52,879.283C2185.47,878.614 2185.98,878.038 2186.65,877.998C2187.32,877.981 2187.9,878.467 2187.94,879.136L2195.67,1006.46C2195.71,1007.13 2195.2,1007.71 2194.53,1007.75L2194.46,1007.75Z" style="fill:rgb(33,17,29);fill-rule:nonzero;"/>
        <path d="M2188.23,905.226C2187.89,905.226 2187.54,905.078 2187.3,904.792L2171.95,886.463C2171.52,885.949 2171.58,885.183 2172.1,884.753C2172.61,884.321 2173.38,884.391 2173.81,884.903L2189.16,903.232C2189.59,903.747 2189.53,904.512 2189.01,904.942C2188.79,905.133 2188.51,905.226 2188.23,905.226Z" style="fill:rgb(33,17,29);fill-rule:nonzero;"/>
        <path d="M1763.08,1000.81C1762.88,1000.81 1762.68,1000.76 1762.49,1000.66C1761.91,1000.33 1761.69,999.595 1762.02,999.008L1859.52,822.857C1887.3,772.653 1912.41,775.058 1913.46,775.18C1914.13,775.26 1914.6,775.865 1914.52,776.53C1914.44,777.195 1913.83,777.679 1913.18,777.591C1912.9,777.558 1888.52,775.476 1861.64,824.033L1764.14,1000.18C1763.92,1000.58 1763.51,1000.81 1763.08,1000.81Z" style="fill:rgb(33,17,29);fill-rule:nonzero;"/>
        <path d="M2089.61,956.949L2017.03,956.949C2016.36,956.949 2015.82,956.406 2015.82,955.735C2015.82,955.064 2016.36,954.521 2017.03,954.521L2089.61,954.521C2090.28,954.521 2090.83,955.064 2090.83,955.735C2090.83,956.406 2090.28,956.949 2089.61,956.949Z" style="fill:rgb(33,17,29);fill-rule:nonzero;"/>
        <path d="M2077.11,964.859L2029.53,964.859C2028.86,964.859 2028.32,964.316 2028.32,963.645C2028.32,962.974 2028.86,962.431 2029.53,962.431L2077.11,962.431C2077.78,962.431 2078.33,962.974 2078.33,963.645C2078.33,964.316 2077.78,964.859 2077.11,964.859Z" style="fill:rgb(33,17,29);fill-rule:nonzero;"/>
        <path d="M2266.02,824.253C2265.66,824.253 2265.29,824.086 2265.05,823.768C2253.54,808.417 2234.72,802.176 2234.53,802.115C2233.9,801.909 2233.55,801.223 2233.75,800.585C2233.96,799.948 2234.64,799.602 2235.28,799.805C2236.08,800.064 2255.01,806.328 2266.99,822.312C2267.4,822.847 2267.29,823.608 2266.75,824.01C2266.53,824.174 2266.28,824.253 2266.02,824.253Z" style="fill:rgb(33,17,29);fill-rule:nonzero;"/>
        <path d="M2263.78,835.292C2263.41,835.292 2263.04,835.125 2262.81,834.807C2251.29,819.456 2232.48,813.215 2232.29,813.154C2231.65,812.948 2231.3,812.262 2231.51,811.625C2231.71,810.987 2232.4,810.642 2233.04,810.845C2233.83,811.103 2252.76,817.367 2264.75,833.351C2265.15,833.887 2265.04,834.647 2264.5,835.049C2264.29,835.213 2264.03,835.292 2263.78,835.292Z" style="fill:rgb(33,17,29);fill-rule:nonzero;"/>
        <path d="M1855.29,1125.77L1494.04,1125.77C1487.37,1125.77 1481.56,1121.23 1479.94,1114.77L1414.15,852.149C1411.85,842.972 1418.79,834.079 1428.25,834.079L1789.5,834.079C1796.17,834.079 1801.98,838.616 1803.6,845.083L1869.39,1107.7C1871.69,1116.88 1864.75,1125.77 1855.29,1125.77Z" style="fill:rgb(76,183,216);fill-rule:nonzero;"/>
        <path d="M1648.41,979.925C1648.41,987.383 1642.36,993.429 1634.91,993.429C1627.45,993.429 1621.4,987.383 1621.4,979.925C1621.4,972.466 1627.45,966.42 1634.91,966.42C1642.36,966.42 1648.41,972.466 1648.41,979.925Z" style="fill:rgb(226,242,241);fill-rule:nonzero;"/>
        <rect x="1175.52" y="1130.52" width="1537.64" height="701.48" style="fill:rgb(136,171,171);fill-rule:nonzero;"/>
        <rect x="1175.52" y="1443.07" width="1537.64" height="23.28" style="fill:rgb(249,146,71);fill-rule:nonzero;"/>
        <rect x="1175.52" y="1808.72" width="1537.64" height="23.28" style="fill:rgb(249,146,71);fill-rule:nonzero;"/>
        <path d="M2713.16,1808.72L2310.46,1808.72L2310.46,1466.35L2713.16,1466.35L2713.16,1808.72ZM2713.16,1443.07L2310.46,1443.07L2310.46,1133.85L2713.16,1133.85L2713.16,1443.07Z" style="fill:rgb(57,28,48);fill-rule:nonzero;"/>
        <rect x="2310.46" y="1443.07" width="402.7" height="23.28" style="fill:rgb(195,109,55);fill-rule:nonzero;"/>
        <path d="M2713.16,1832L2697.55,1832L2310.46,1832L2310.46,1808.72L2713.16,1808.72L2713.16,1832Z" style="fill:rgb(195,109,55);fill-rule:nonzero;"/>
        <rect x="1161.28" y="1110.57" width="1565.69" height="23.28" style="fill:rgb(249,146,71);fill-rule:nonzero;"/>
        <path d="M2706.24,885.903C2706.24,885.903 2701.78,823.737 2677.65,835.803C2653.52,847.869 2633.84,927.084 2631.22,929.445C2628.6,931.806 2629.38,1004.2 2629.38,1004.2L2657.45,990.041C2657.45,990.041 2664.92,816.998 2706.24,885.903Z" style="fill:rgb(37,141,140);fill-rule:nonzero;"/>
        <path d="M2679.2,757.191C2679.2,757.191 2625.12,805.572 2610.37,888.525C2595.61,971.479 2642.24,995.893 2642.24,995.893C2642.24,995.893 2648.87,821.47 2679.2,757.191Z" style="fill:rgb(127,198,166);fill-rule:nonzero;"/>
        <path d="M2578.89,1007.09C2578.89,1007.09 2569.84,830.496 2524.2,753.934C2524.2,753.934 2604.33,801.738 2630.9,927.211C2632.39,934.275 2633.28,942.127 2634.41,949.688C2635.59,957.556 2636.29,964.521 2636.11,971.476C2635.8,983.762 2634.09,994.32 2633.59,1002.08C2629.26,1069.12 2578.89,1007.09 2578.89,1007.09Z" style="fill:rgb(37,141,140);fill-rule:nonzero;"/>
        <path d="M2580.44,932.1C2577.33,906.923 2567.77,882.924 2552.41,862.738C2541.31,848.156 2528.46,837.075 2518.43,844.983C2496.13,862.558 2491.68,971.676 2491.68,971.676C2491.68,971.676 2516.86,896.132 2527.87,901.116C2538.89,906.1 2549.12,1008.66 2549.12,1008.66L2590.3,1012.07L2580.44,932.1Z" style="fill:rgb(127,198,166);fill-rule:nonzero;"/>
        <path d="M2636.61,1000.92C2638.3,962.368 2633.46,925.365 2622.24,890.94C2613.25,863.397 2600.18,837.436 2583.39,813.776C2554.79,773.484 2524.87,753.573 2524.57,753.376L2523.83,754.491C2524.13,754.686 2553.88,774.489 2582.34,814.595C2608.59,851.598 2639.09,913.949 2635.28,1000.86L2636.61,1000.92Z" style="fill:rgb(33,17,29);fill-rule:nonzero;"/>
        <path d="M2642.9,995.918C2642.92,995.483 2644.62,951.737 2650.01,900.709C2654.98,853.646 2664.17,790.594 2679.8,757.476L2678.59,756.907C2662.89,790.196 2653.66,853.409 2648.68,900.577C2643.29,951.649 2641.59,995.432 2641.57,995.868L2642.9,995.918Z" style="fill:rgb(33,17,29);fill-rule:nonzero;"/>
        <path d="M2658.12,990.069C2658.13,989.785 2659.4,961.344 2663.58,932.525C2669.07,894.632 2677.01,873.311 2686.54,870.868C2692.17,869.426 2698.6,874.6 2705.67,886.249L2706.81,885.557C2699.4,873.348 2692.47,867.971 2686.21,869.577C2675.97,872.201 2667.91,893.319 2662.26,932.343C2658.07,961.227 2656.8,989.727 2656.79,990.011L2658.12,990.069Z" style="fill:rgb(33,17,29);fill-rule:nonzero;"/>
        <path d="M2589.64,1012.15L2590.96,1011.99L2581.1,932.019C2577.95,906.5 2568.21,882.404 2552.94,862.335C2543.27,849.628 2534.68,842.716 2527.41,841.793C2523.97,841.356 2520.82,842.254 2518.02,844.46C2508.63,851.86 2501.23,875.536 2496.03,914.833C2492.17,944.001 2491.02,971.375 2491.01,971.648L2492.34,971.703C2492.39,970.615 2497.04,862.692 2518.84,845.506C2521.35,843.53 2524.18,842.727 2527.24,843.115C2534.14,843.992 2542.43,850.73 2551.88,863.142C2567.01,883.024 2576.66,906.897 2579.78,932.182L2589.64,1012.15Z" style="fill:rgb(33,17,29);fill-rule:nonzero;"/>
        <path d="M2554.3,930.914L2555.48,930.303L2546.83,913.533L2545.64,914.144L2554.3,930.914Z" style="fill:rgb(33,17,29);fill-rule:nonzero;"/>
        <path d="M2554.31,941.191L2555.47,940.548L2546.82,924.842L2545.65,925.485L2554.31,941.191Z" style="fill:rgb(33,17,29);fill-rule:nonzero;"/>
        <path d="M2636.55,830.309L2643.95,814.069L2642.73,813.517L2635.34,829.755L2636.55,830.309Z" style="fill:rgb(33,17,29);fill-rule:nonzero;"/>
        <path d="M2636.53,838.225L2642.82,826.863L2641.66,826.217L2635.36,837.578L2636.53,838.225Z" style="fill:rgb(33,17,29);fill-rule:nonzero;"/>
        <path d="M2672.05,849.363L2684.64,842.946L2684.04,841.758L2671.44,848.175L2672.05,849.363Z" style="fill:rgb(33,17,29);fill-rule:nonzero;"/>
        <path d="M2672.09,854.805L2679.54,850.274L2678.85,849.135L2671.4,853.667L2672.09,854.805Z" style="fill:rgb(33,17,29);fill-rule:nonzero;"/>
        <path d="M2671.75,985.551C2671.75,985.551 2669.4,1114.65 2634.82,1111.62L2607.63,1111.62L2603.26,1111.62L2576.07,1111.62C2541.49,1114.65 2539.14,985.551 2539.14,985.551C2571.86,980.605 2639.03,980.605 2671.75,985.551Z" style="fill:rgb(247,85,83);fill-rule:nonzero;"/>
        <path d="M2589.82,1042.89L2590.79,1041.98L2553,1002.08L2552.03,1003L2589.82,1042.89Z" style="fill:rgb(33,17,29);fill-rule:nonzero;"/>
        <path d="M2583.91,1052.58L2584.91,1051.7L2564.11,1027.78L2563.1,1028.66L2583.91,1052.58Z" style="fill:rgb(33,17,29);fill-rule:nonzero;"/>
        <path d="M2446.68,1086L2446.68,1019.5C2465.02,1019.5 2479.94,1034.41 2479.94,1052.75C2479.94,1071.08 2465.02,1086 2446.68,1086ZM2369.29,994.711L2369.29,1102.4C2369.29,1106.81 2372.86,1110.38 2377.27,1110.38L2438.71,1110.38C2443.11,1110.38 2446.68,1106.81 2446.68,1102.4L2446.68,1096.88C2471.02,1096.88 2490.82,1077.08 2490.82,1052.75C2490.82,1028.41 2471.02,1008.61 2446.68,1008.61L2446.68,994.711L2369.29,994.711Z" style="fill:rgb(254,186,199);fill-rule:nonzero;"/>
        <path d="M2403.34,1072.11L2414.75,1053.08L2412.92,1051.98L2401.5,1071.01L2403.34,1072.11Z" style="fill:rgb(73,38,62);fill-rule:nonzero;"/>
        <path d="M2390.98,1075.33L2401.76,1056.62L2399.91,1055.55L2389.13,1074.27L2390.98,1075.33Z" style="fill:rgb(73,38,62);fill-rule:nonzero;"/>
        <rect x="1274.29" y="1047.05" width="176.79" height="33.609" style="fill:rgb(247,85,83);fill-rule:nonzero;"/>
        <rect x="1294.26" y="1047.05" width="12.08" height="33.609" style="fill:rgb(226,68,68);fill-rule:nonzero;"/>
        <rect x="1419.98" y="1047.05" width="12.07" height="33.609" style="fill:rgb(226,68,68);fill-rule:nonzero;"/>
        <path d="M1387.78,1063.69L1386.74,1061.69L1400.42,1054.57L1401.46,1056.57L1387.78,1063.69Z" style="fill:rgb(33,17,29);fill-rule:nonzero;"/>
        <path d="M1396.62,1066.64L1395.52,1064.67L1409.98,1056.55L1411.08,1058.52L1396.62,1066.64Z" style="fill:rgb(33,17,29);fill-rule:nonzero;"/>
        <rect x="1201.7" y="1080.66" width="231.71" height="29.91" style="fill:rgb(127,198,166);fill-rule:nonzero;"/>
        <rect x="1227.87" y="1080.66" width="15.83" height="29.91" style="fill:rgb(48,127,128);fill-rule:nonzero;"/>
        <rect x="1396.28" y="1080.66" width="15.83" height="29.91" style="fill:rgb(48,127,128);fill-rule:nonzero;"/>
        <path d="M1250.99,1099.88L1249.95,1097.11L1263.64,1087.24L1264.68,1090.01L1250.99,1099.88Z" style="fill:rgb(33,17,29);fill-rule:nonzero;"/>
        <path d="M1259.83,1103.97L1258.73,1101.24L1273.19,1089.99L1274.29,1092.71L1259.83,1103.97Z" style="fill:rgb(33,17,29);fill-rule:nonzero;"/>
        <path d="M1375.91,1334.25C1375.59,1334.25 1375.28,1334.13 1375.04,1333.89L1291.07,1248.65C1290.6,1248.17 1290.61,1247.4 1291.09,1246.93C1291.56,1246.46 1292.33,1246.46 1292.8,1246.94L1376.77,1332.19C1377.24,1332.66 1377.24,1333.43 1376.76,1333.9C1376.52,1334.14 1376.22,1334.25 1375.91,1334.25Z" style="fill:rgb(33,17,29);fill-rule:nonzero;"/>
        <path d="M1354.33,1351.52C1354.01,1351.52 1353.69,1351.39 1353.45,1351.15L1291.06,1286.4C1290.6,1285.92 1290.61,1285.15 1291.1,1284.69C1291.58,1284.22 1292.35,1284.24 1292.81,1284.72L1355.2,1349.46C1355.67,1349.94 1355.65,1350.71 1355.17,1351.18C1354.93,1351.4 1354.63,1351.52 1354.33,1351.52Z" style="fill:rgb(33,17,29);fill-rule:nonzero;"/>
        <path d="M2233.84,1708.85C2233.53,1708.85 2233.22,1708.73 2232.98,1708.49L2163.04,1637.49C2162.57,1637.01 2162.57,1636.24 2163.05,1635.77C2163.53,1635.3 2164.3,1635.3 2164.77,1635.78L2234.71,1706.79C2235.18,1707.26 2235.17,1708.03 2234.7,1708.5C2234.46,1708.74 2234.15,1708.85 2233.84,1708.85Z" style="fill:rgb(33,17,29);fill-rule:nonzero;"/>
        <path d="M2215.87,1723.23C2215.55,1723.23 2215.23,1723.11 2215,1722.86L2163.03,1668.93C2162.56,1668.45 2162.58,1667.68 2163.06,1667.22C2163.54,1666.75 2164.31,1666.77 2164.78,1667.25L2216.74,1721.18C2217.21,1721.66 2217.19,1722.43 2216.71,1722.89C2216.48,1723.12 2216.17,1723.23 2215.87,1723.23Z" style="fill:rgb(33,17,29);fill-rule:nonzero;"/>
        <path d="M1175.52,1443.07L2713.16,1443.07L1175.52,1443.07Z" style="fill:rgb(249,146,71);fill-rule:nonzero;"/>
        <path d="M1175.52,1808.72L2713.16,1808.72L1175.52,1808.72Z" style="fill:rgb(249,146,71);fill-rule:nonzero;"/>
        <path d="M2023.43,649.659C2023.43,649.659 2028.09,626.112 2059.59,623.519C2091.1,620.926 2095.34,644.548 2095.34,644.548L2059.39,651.841L2025.75,649.494L2023.43,649.659Z" style="fill:rgb(254,159,115);fill-rule:nonzero;"/>
        <path d="M2023.43,629.711C2023.43,629.711 2043.03,648.897 2068.46,644.548C2068.46,644.548 2076.94,675.609 2095.34,674.175C2113.74,672.742 2103.73,629.711 2103.73,629.711C2103.73,629.711 2069.33,615.701 2067.15,615.701C2064.97,615.701 2028.48,613.523 2028.48,613.523L2023.43,629.711Z" style="fill:rgb(119,116,116);fill-rule:nonzero;"/>
        <path d="M2048.96,685.801C2049.74,685.801 2049.74,684.586 2048.96,684.586C2048.18,684.586 2048.17,685.801 2048.96,685.801Z" style="fill:rgb(234,89,66);fill-rule:nonzero;"/>
        <path d="M2052.65,687.986C2053.43,687.986 2053.43,686.772 2052.65,686.772C2051.86,686.772 2051.86,687.986 2052.65,687.986Z" style="fill:rgb(234,89,66);fill-rule:nonzero;"/>
        <path d="M2059.34,683.615C2060.12,683.615 2060.12,682.401 2059.34,682.401C2058.56,682.401 2058.56,683.615 2059.34,683.615Z" style="fill:rgb(234,89,66);fill-rule:nonzero;"/>
        <path d="M2065.07,687.986C2065.86,687.986 2065.86,686.772 2065.07,686.772C2064.29,686.772 2064.29,687.986 2065.07,687.986Z" style="fill:rgb(234,89,66);fill-rule:nonzero;"/>
        <path d="M2071.08,682.113C2071.87,682.113 2071.87,680.899 2071.08,680.899C2070.3,680.899 2070.3,682.113 2071.08,682.113Z" style="fill:rgb(234,89,66);fill-rule:nonzero;"/>
        <path d="M2073.27,690.854C2074.05,690.854 2074.05,689.64 2073.27,689.64C2072.49,689.64 2072.49,690.854 2073.27,690.854Z" style="fill:rgb(234,89,66);fill-rule:nonzero;"/>
        <path d="M2036.8,682.25C2037.58,682.25 2037.58,681.036 2036.8,681.036C2036.02,681.036 2036.02,682.25 2036.8,682.25Z" style="fill:rgb(234,89,66);fill-rule:nonzero;"/>
        <path d="M2032.29,687.167C2033.08,687.167 2033.08,685.953 2032.29,685.953C2031.51,685.953 2031.51,687.167 2032.29,687.167Z" style="fill:rgb(234,89,66);fill-rule:nonzero;"/>
        <path d="M2026.83,684.981C2027.61,684.981 2027.61,683.767 2026.83,683.767C2026.05,683.767 2026.05,684.981 2026.83,684.981Z" style="fill:rgb(234,89,66);fill-rule:nonzero;"/>
        <path d="M2026.42,693.586C2027.2,693.586 2027.2,692.372 2026.42,692.372C2025.64,692.372 2025.64,693.586 2026.42,693.586Z" style="fill:rgb(234,89,66);fill-rule:nonzero;"/>
        <path d="M2022.32,688.532C2023.11,688.532 2023.11,687.318 2022.32,687.318C2021.54,687.318 2021.54,688.532 2022.32,688.532Z" style="fill:rgb(234,89,66);fill-rule:nonzero;"/>
        <path d="M2023.28,681.02C2024.06,681.02 2024.06,679.806 2023.28,679.806C2022.5,679.806 2022.5,681.02 2023.28,681.02Z" style="fill:rgb(234,89,66);fill-rule:nonzero;"/>
        <path d="M2057.02,691.81C2057.8,691.81 2057.8,690.596 2057.02,690.596C2056.23,690.596 2056.23,691.81 2057.02,691.81Z" style="fill:rgb(234,89,66);fill-rule:nonzero;"/>
        <path d="M2052.41,703.501C2046.32,708.997 2040.39,705.053 2040.33,705.012C2040.14,704.884 2040.1,704.625 2040.24,704.432C2040.38,704.239 2040.64,704.186 2040.83,704.313C2041.06,704.465 2046.29,707.92 2051.86,702.898C2051.96,702.808 2052.06,702.714 2052.16,702.617C2052.32,702.462 2052.6,702.45 2052.76,702.612C2052.92,702.775 2052.9,703.04 2052.73,703.205C2052.62,703.306 2052.52,703.406 2052.41,703.501Z" style="fill:rgb(240,113,98);fill-rule:nonzero;"/>
        <path d="M1073.77,1101.76C1074.2,1097.65 1071.17,1093.96 1067.09,1093.26L1041.71,1088.9C1040.91,1088.77 1040.29,1088.14 1040.16,1087.34C1039.97,1086.17 1040.9,1085.11 1042.09,1085.16L1080.1,1086.56C1084.46,1086.72 1087.46,1083.33 1086.76,1079.03C1086.07,1074.73 1081.94,1071.08 1077.59,1070.92L1038.83,1069.48C1037.93,1069.45 1037.18,1068.79 1037.03,1067.9L1036.93,1067.27C1036.77,1066.24 1037.47,1065.27 1038.5,1065.1L1080.98,1058.28C1085.06,1057.62 1088.13,1053.96 1087.74,1049.84C1087.31,1045.33 1083.18,1042.18 1078.77,1042.89L1036.03,1049.76C1035,1049.92 1034.03,1049.22 1033.87,1048.2L1033.55,1046.2C1033.4,1045.26 1033.96,1044.36 1034.87,1044.09L1073.42,1032.6C1077.38,1031.42 1079.95,1027.39 1079.03,1023.36C1078.02,1018.94 1073.51,1016.35 1069.23,1017.63C1069.23,1017.63 1009.52,1031.99 1000,1033.48L1009.54,1013.14C1012.05,1009.66 1011.27,1004.8 1007.79,1002.29C1004.32,999.77 999.459,1000.55 996.944,1004.03L963.109,1040.9C961.47,1043.16 962.343,1048.7 964.108,1052.98C967.914,1098.68 968.876,1105.69 971.037,1117.92L1019.14,1108.51C1033.02,1105.79 1047.28,1105.63 1061.22,1108.02L1064.72,1108.62C1069.12,1109.38 1073.29,1106.27 1073.77,1101.76Z" style="fill:rgb(254,159,115);fill-rule:nonzero;"/>
        <path d="M800.017,1041.36L971.771,1016.53C971.771,1016.53 993.318,1082.3 988.315,1123.97C988.315,1123.97 831.363,1176.2 797.898,1171.95C764.434,1167.69 730.306,1119.78 730.306,1119.78C730.306,1119.78 724.993,870.136 730,874C735.007,877.864 800.017,1041.36 800.017,1041.36Z" style="fill:rgb(58,144,239);fill-rule:nonzero;"/>
        <path d="M1117.89,1799.55L988.538,1789.05L987.211,1761.86L985.94,1665.96L1119.52,1679.51L1117.89,1799.55Z" style="fill:rgb(254,159,115);fill-rule:nonzero;"/>
        <path d="M769,1121C769,1121 1048,1156 1087,1206C1106.23,1230.65 1145.41,1561.35 1129.16,1698.93C1129.16,1698.93 1029.5,1705.79 981.835,1694.23L970.235,1358.79L756,1294L646,1125L769,1121Z" style="fill:rgb(37,141,140);fill-rule:nonzero;"/>
        <path d="M1050.09,1702.71C1009.63,1702.71 981.692,1696.08 981.406,1696.01L980.057,1695.68L968.327,1356.5L983.303,1368.56L981.011,1371.4L972.257,1364.36L983.614,1692.75C989.813,1694.09 1016.81,1699.42 1053.63,1699.04L1053.67,1702.69C1052.46,1702.7 1051.27,1702.71 1050.09,1702.71Z" style="fill:rgb(33,17,29);fill-rule:nonzero;"/>
        <path d="M1026.76,1832.82L1203.37,1832.78C1204.97,1832.52 1206.27,1832.24 1207.22,1831.94C1218.55,1828.33 1219.49,1821.71 1218.96,1817.88C1218.73,1816.18 1217.74,1814.68 1216.28,1813.74L1118.72,1750.57L1086.48,1764.83C1076.23,1769.39 1065.29,1772.3 1054.09,1773.38C1031.21,1775.57 994.508,1776.76 987.22,1762.55L988.372,1817.08C988.372,1817.08 983.036,1833.24 1026.76,1832.82Z" style="fill:rgb(73,73,73);fill-rule:nonzero;"/>
        <path d="M746.073,1803.01L638.181,1803.01L638.181,1433.95L614.211,1433.95L614.211,1803.01L509.12,1803.01C494.456,1803.01 482.568,1814.9 482.568,1829.56L772.625,1829.56C772.625,1814.9 760.737,1803.01 746.073,1803.01Z" style="fill:rgb(104,61,70);fill-rule:nonzero;"/>
        <path d="M314.202,862.863L562.166,862.863L693.341,1433.95L409.193,1404.33L314.202,862.863Z" style="fill:rgb(254,199,134);fill-rule:nonzero;"/>
        <path d="M882.185,1375.78C882.185,1375.78 556.314,1375.78 459.065,1375.78C443.371,1375.78 429.917,1364.58 427.066,1349.15L340.601,881.03C338.278,868.454 325.986,860.236 313.393,863.028C301.397,865.688 293.902,877.713 296.134,889.796L394.086,1420.11C394.846,1424.22 396.688,1427.85 399.239,1430.79C405.542,1442.5 417.91,1450.46 432.14,1450.46L882.185,1450.46C902.809,1450.46 919.527,1433.75 919.527,1413.12C919.527,1392.5 902.809,1375.78 882.185,1375.78Z" style="fill:rgb(249,146,71);fill-rule:nonzero;"/>
        <path d="M459.065,1377.6C442.496,1377.6 428.286,1365.78 425.276,1349.48L338.811,881.361C337.774,875.749 334.583,870.923 329.823,867.771C325.067,864.621 319.375,863.566 313.787,864.806C312.807,865.023 311.833,864.404 311.615,863.421C311.397,862.44 312.017,861.468 312.999,861.25C319.559,859.795 326.247,861.035 331.834,864.735C337.425,868.437 341.174,874.107 342.392,880.7L428.857,1348.82C431.548,1363.39 444.252,1373.96 459.065,1373.96C460.071,1373.96 460.886,1374.78 460.886,1375.78C460.886,1376.79 460.071,1377.6 459.065,1377.6Z" style="fill:rgb(33,17,29);fill-rule:nonzero;"/>
        <path d="M772.708,1379.34C772.708,1379.34 665.778,1381.1 590.831,1378.54C566.774,1377.71 545.366,1379.41 532.69,1376.59C480.524,1365.01 467.675,1202.18 526.908,1102.42C586.141,1002.66 793.38,1308.96 793.38,1308.96L772.708,1379.34Z" style="fill:rgb(127,198,166);fill-rule:nonzero;"/>
        <path d="M965.195,1801.38L854.889,1795.44C842.946,1794.8 833.505,1785.08 833.208,1773.12L830.513,1664.53L964.089,1678.09L965.195,1801.38Z" style="fill:rgb(254,159,115);fill-rule:nonzero;"/>
        <path d="M683,1156C683,1156 964.217,1213.63 971.8,1243.96C979.383,1274.29 1000.97,1562.08 984.719,1699.65C984.719,1699.65 877.558,1705.79 829.895,1694.23L817.051,1377.8L770.825,1379.41L658.742,1182.22L683,1156Z" style="fill:rgb(127,198,166);fill-rule:nonzero;"/>
        <path d="M894.197,1703.39C846.845,1703.39 829.961,1696.26 829.161,1695.91L828.113,1695.44L815.679,1377.15L835.247,1386.38L833.687,1389.69L819.567,1383.03L831.674,1692.94C836.795,1694.71 861.355,1701.8 919.358,1699.12L919.527,1702.77C910.253,1703.2 901.829,1703.39 894.197,1703.39Z" style="fill:rgb(33,17,29);fill-rule:nonzero;"/>
        <path d="M849.791,1634.75C844.736,1615.26 843.292,1425.13 843.232,1417.04L846.888,1417.01C846.902,1418.99 848.388,1614.77 853.329,1633.83L849.791,1634.75Z" style="fill:rgb(33,17,29);fill-rule:nonzero;"/>
        <path d="M692.25,1382.75C645.591,1382.75 589.655,1381.17 526.77,1376.44L527.044,1372.81C714.409,1386.92 840.062,1372.96 841.31,1372.81L841.723,1376.43C840.892,1376.53 784.884,1382.75 692.25,1382.75Z" style="fill:rgb(33,17,29);fill-rule:nonzero;"/>
        <path d="M872.645,1832.82L1049.26,1832.78C1050.86,1832.52 1052.16,1832.24 1053.11,1831.94C1064.44,1828.33 1065.38,1821.71 1064.85,1817.88C1064.61,1816.18 1063.63,1814.68 1062.17,1813.74L964.607,1750.57L932.374,1764.83C922.115,1769.39 911.182,1772.3 899.977,1773.38C877.102,1775.57 840.055,1776.75 832.768,1762.54L834.261,1817.08C834.261,1817.08 828.925,1833.24 872.645,1832.82Z" style="fill:rgb(81,78,78);fill-rule:nonzero;"/>
        <path d="M572.444,1271.22C572.444,1271.22 640.122,1238.98 703.061,1191.49C766,1144 804,1114 804,1114C804,1114 795.25,1094.66 786.813,1078.48L772,1050L735.794,891.985C735.794,891.985 724.469,815.998 622.001,797.905C625.917,799.721 613.624,796.497 613.624,796.497C613.624,796.497 520.836,799.857 485.67,804.726C431.024,812.293 425.421,953.53 425.421,953.53C425.407,1047.33 436.5,1175.71 469.104,1217.52C510.521,1270.64 558.278,1272.33 572.474,1271.52C572.454,1271.33 572.444,1271.22 572.444,1271.22Z" style="fill:rgb(58,141,239);fill-rule:nonzero;"/>
        <path d="M545.563,793.563C545.563,793.563 483.69,791.398 454.154,808.131C410.077,833.102 425.778,976.114 425.778,976.114C425.778,976.114 463.234,955.684 465.504,948.874C467.774,942.063 545.563,793.563 545.563,793.563Z" style="fill:rgb(58,143,239);fill-rule:nonzero;"/>
        <path d="M529.698,1266.06C533.694,1267.57 537.459,1268.75 540.929,1269.67C561.771,1275.2 576.33,1272.9 576.94,1272.8C577.867,1272.65 578.495,1271.78 578.342,1270.85C578.191,1269.92 577.314,1269.29 576.388,1269.44C576.244,1269.47 561.803,1271.72 541.626,1266.33C523.017,1261.37 495.559,1248.68 470.446,1216.48C438.921,1176.05 427.407,1051.58 427.125,957.278C427.124,956.338 426.357,955.576 425.418,955.581C424.478,955.583 423.718,956.348 423.721,957.288C424.004,1052.13 435.708,1177.46 467.761,1218.57C488.851,1245.62 511.619,1259.23 529.698,1266.06Z" style="fill:rgb(33,17,29);fill-rule:nonzero;"/>
        <path d="M580.296,1110.34C580.603,1110.45 580.945,1110.48 581.287,1110.4C582.203,1110.19 582.77,1109.27 582.554,1108.35C582.271,1107.15 554.096,987.381 542.106,912.012C541.957,911.083 541.082,910.452 540.158,910.598C539.229,910.746 538.596,911.619 538.744,912.546C550.753,988.042 578.956,1107.93 579.24,1109.13C579.375,1109.71 579.785,1110.14 580.296,1110.34Z" style="fill:rgb(33,17,29);fill-rule:nonzero;"/>
        <path d="M580.727,860.846C582.043,860.982 583.383,861.098 584.75,861.194C585.529,861.249 586.206,860.661 586.26,859.881C586.315,859.103 585.752,858.433 584.947,858.371C526.313,854.255 515.426,811.33 515.341,810.899C515.198,810.145 514.477,809.62 513.716,809.753C512.958,809.88 512.437,810.571 512.544,811.332C512.609,811.774 523.431,854.918 580.727,860.846Z" style="fill:rgb(33,17,29);fill-rule:nonzero;"/>
        <path d="M621.045,1452.6L621.042,1452.6L444.522,1452.28C396.973,1456.57 391.312,1415.88 391.042,1413.65L380.547,1356.83C380.365,1355.84 381.019,1354.89 382.007,1354.71C383,1354.53 383.946,1355.18 384.128,1356.17L394.655,1413.19C394.819,1414.81 399.206,1452.76 444.276,1448.65L444.445,1448.64L621.049,1448.96C622.054,1448.96 622.868,1449.78 622.866,1450.78C622.864,1451.79 622.049,1452.6 621.045,1452.6Z" style="fill:rgb(33,17,29);fill-rule:nonzero;"/>
        <path d="M409.732,864.684L409.729,864.684L322.958,864.557C321.952,864.556 321.138,863.739 321.139,862.734C321.141,861.729 321.956,860.916 322.96,860.916L322.962,860.916L409.735,861.042C410.741,861.043 411.555,861.86 411.553,862.865C411.552,863.871 410.737,864.684 409.732,864.684Z" style="fill:rgb(33,17,29);fill-rule:nonzero;"/>
        <path d="M730.163,1033.79C718.671,995.038 706.26,951.125 701.941,928.442C701.764,927.518 700.871,926.913 699.95,927.088C699.026,927.263 698.42,928.155 698.596,929.078C702.957,951.976 715.499,996.326 727.06,1035.3C728.087,1034.8 729.138,1034.29 730.163,1033.79Z" style="fill:rgb(33,17,29);fill-rule:nonzero;"/>
        <path d="M698.001,1196.5C697.517,1196.5 697.041,1196.27 696.752,1195.83C696.292,1195.14 696.479,1194.21 697.168,1193.75C716.775,1180.68 793.414,1120.42 802.246,1113.47C790.157,1077.38 756.079,1032.92 750.58,1025.89L584.783,1109.29L562.882,1125.21C562.212,1125.7 561.274,1125.55 560.787,1124.88C560.3,1124.21 560.448,1123.27 561.118,1122.79L583.326,1106.66L751.412,1022.11L752.171,1023.06C752.573,1023.57 792.492,1073.74 805.427,1113.54L805.75,1114.53L804.929,1115.18C804.078,1115.85 719.641,1182.38 698.832,1196.25C698.576,1196.42 698.287,1196.5 698.001,1196.5Z" style="fill:rgb(33,17,29);fill-rule:nonzero;"/>
        <path d="M988.589,1099.34C987.821,1099.34 987.167,1098.76 987.097,1097.98C984.061,1063.99 973.088,1025.91 970.934,1018.66L799.048,1042.65L768.551,967.19C739.899,885.977 716.07,852.57 715.833,852.242C677.788,803.762 614.141,798.044 613.502,797.992C612.677,797.925 612.062,797.201 612.129,796.375C612.196,795.55 612.917,794.927 613.745,795.002C614.396,795.055 679.321,800.856 718.228,850.437C718.502,850.813 742.558,884.498 771.356,966.129L800.952,1039.35L973.057,1015.34L973.433,1016.56C973.565,1016.99 986.702,1059.84 990.085,1097.71C990.159,1098.54 989.55,1099.26 988.725,1099.34L988.589,1099.34Z" style="fill:rgb(33,17,29);fill-rule:nonzero;"/>
        <path d="M627.625,668.8L629.547,742.89C629.547,742.89 631.157,766.682 610.394,770.199L615.109,801.875C616.862,813.65 610.092,825.142 598.841,829.028C593.339,830.929 586.75,832.383 579.241,832.578C555.423,833.196 542.059,815.667 539.842,806.787C537.625,797.907 542.473,755.079 542.473,755.079L541.204,734.129L541.806,652.81L627.625,668.8Z" style="fill:rgb(254,159,115);fill-rule:nonzero;"/>
        <path d="M561.554,751.219C561.554,751.219 563.985,791.047 613.872,793.563L610.394,770.199C610.394,770.199 578.272,777.524 561.554,751.219Z" style="fill:rgb(240,113,98);fill-rule:nonzero;"/>
        <path d="M571.129,709.151C570.881,709.158 570.631,709.072 570.434,708.892C570.029,708.523 570,707.896 570.369,707.49C570.501,707.344 583.789,693.028 596.523,702.754C596.958,703.086 597.042,703.709 596.709,704.145C596.376,704.582 595.754,704.665 595.317,704.331C584.034,695.714 572.329,708.288 571.836,708.827C571.647,709.035 571.389,709.145 571.129,709.151Z" style="fill-rule:nonzero;"/>
        <path d="M536.657,699.625L558.19,703.528L562.166,707.438C562.166,707.438 559.38,671.58 555.163,664.625C550.946,657.67 536.657,699.625 536.657,699.625Z" style="fill-rule:nonzero;"/>
        <path d="M611.884,702.135C611.606,702.143 611.327,702.034 611.125,701.812C610.755,701.407 610.783,700.78 611.188,700.41C611.579,700.053 620.835,691.711 626.953,696.688C627.378,697.034 627.443,697.659 627.097,698.083C626.751,698.511 626.126,698.574 625.701,698.228C620.908,694.329 612.61,701.8 612.527,701.876C612.343,702.044 612.114,702.129 611.884,702.135Z" style="fill-rule:nonzero;"/>
        <path d="M591.301,712.641C591.344,714.285 590.045,715.653 588.401,715.696C586.757,715.738 585.39,714.44 585.347,712.795C585.304,711.151 586.603,709.784 588.247,709.741C589.891,709.699 591.259,710.997 591.301,712.641Z" style="fill-rule:nonzero;"/>
        <path d="M622.871,708.843C622.914,710.487 621.615,711.855 619.971,711.897C618.327,711.94 616.959,710.642 616.917,708.998C616.874,707.353 618.172,705.986 619.816,705.943C621.46,705.9 622.828,707.199 622.871,708.843Z" style="fill-rule:nonzero;"/>
        <path d="M566.685,712.246C566.941,722.111 559.151,730.316 549.285,730.572C539.419,730.828 531.214,723.038 530.958,713.172C530.703,703.307 538.493,695.102 548.358,694.846C558.224,694.59 566.429,702.38 566.685,712.246Z" style="fill:rgb(254,159,115);fill-rule:nonzero;"/>
        <path d="M545.953,722.705C542.242,722.801 539.691,720.077 538.803,717.311C537.752,714.039 538.775,710.807 541.41,709.075C545.302,706.517 548.929,708 550.798,709.161C549.974,707.153 548.727,705.708 547.078,704.856C543.508,703.01 539.179,704.534 539.136,704.55C538.878,704.644 538.593,704.51 538.5,704.251C538.407,703.994 538.54,703.71 538.798,703.616C538.991,703.546 543.566,701.929 547.526,703.971C549.812,705.149 551.402,707.299 552.252,710.36L552.729,712.077L551.433,710.854C551.25,710.68 546.895,706.66 541.955,709.905C539.22,711.702 539.057,714.854 539.748,717.007C540.466,719.242 542.512,721.801 545.923,721.713L546.026,721.709C546.296,721.702 546.523,721.914 546.534,722.186C546.545,722.459 546.332,722.69 546.058,722.702L545.953,722.705Z" style="fill:rgb(240,113,98);fill-rule:nonzero;"/>
        <path d="M602.325,732.451C602.116,732.457 601.919,732.33 601.845,732.123C601.751,731.864 601.886,731.581 602.144,731.488L612.005,727.94L608.255,704.612C608.212,704.342 608.396,704.087 608.667,704.044C608.94,703.993 609.192,704.185 609.236,704.455L613.117,728.596L602.479,732.422L602.325,732.451Z" style="fill:rgb(240,113,98);fill-rule:nonzero;"/>
        <path d="M594.871,742.316C595.175,742.249 614.507,741.293 614.507,741.293C614.507,741.293 612.286,749.356 605.102,749.731C597.917,750.105 594.871,742.316 594.871,742.316Z" style="fill:rgb(251,253,252);fill-rule:nonzero;"/>
        <path d="M536.657,699.625C536.657,699.625 529.723,665 540.037,651.758C550.35,638.517 610.883,614.242 618.459,620.533C626.036,626.823 618.832,634.887 618.832,634.887C618.832,634.887 643.168,626.378 649.29,647.997C655.411,669.616 602.865,680.246 571.114,670.876C571.114,670.876 550.446,677.49 536.657,699.625Z" style="fill-rule:nonzero;"/>
        <path d="M833.494,1064.49L876.455,1062.19C880.588,1061.97 884.031,1058.66 884.077,1054.52C884.128,1049.98 880.348,1046.42 875.892,1046.66L832.664,1048.97C831.623,1049.02 830.734,1048.23 830.679,1047.18L830.571,1045.16C830.52,1044.22 831.179,1043.38 832.11,1043.21L871.652,1035.86C875.722,1035.1 878.704,1031.37 878.212,1027.26C877.673,1022.76 873.462,1019.71 869.074,1020.53C869.074,1020.53 808.176,1028.5 798.556,1028.97L810.192,1009.75C813.061,1006.56 812.798,1001.64 809.605,998.774C806.413,995.906 801.5,996.169 798.631,999.361L761.088,1032.44C760.767,1032.8 760.514,1033.27 760.314,1033.81C771.728,1049.37 792.259,1079.25 802.792,1106.2L809.658,1105.6C823.749,1104.37 837.945,1105.72 851.555,1109.57L854.972,1110.53C859.267,1111.75 863.74,1109.11 864.69,1104.67C865.558,1100.62 862.931,1096.63 858.948,1095.51L834.167,1088.49C833.39,1088.27 832.839,1087.58 832.796,1086.78C832.732,1085.59 833.771,1084.64 834.95,1084.81L872.598,1090.22C876.912,1090.84 880.25,1087.79 880.018,1083.44C879.785,1079.09 876.065,1075.02 871.752,1074.4L833.36,1068.88C832.469,1068.75 831.792,1068.01 831.744,1067.11L831.71,1066.47C831.654,1065.43 832.453,1064.54 833.494,1064.49Z" style="fill:rgb(254,159,115);fill-rule:nonzero;"/>
        <rect x="329.748" y="1823.17" width="2432.25" height="9.66" style="fill-rule:nonzero;"/>
    </g>
</svg>
