<svg width="61" height="61" viewBox="0 0 61 61" fill="none" xmlns="http://www.w3.org/2000/svg">
<circle cx="30.5" cy="30.5" r="30" stroke="#00A7A7"/>
<path d="M47.4043 17.3884H38.0213V23.5878H25.5106V17.3884H16.1277C14.4009 17.3884 13 18.7768 13 20.4881V43.2195C13 44.9308 14.4009 46.3192 16.1277 46.3192H47.4043C49.131 46.3192 50.5319 44.9308 50.5319 43.2195V20.4881C50.5319 18.7768 49.131 17.3884 47.4043 17.3884ZM31.766 27.7208C34.0661 27.7208 35.9362 29.5742 35.9362 31.8538C35.9362 34.1334 34.0661 35.9868 31.766 35.9868C29.4658 35.9868 27.5957 34.1334 27.5957 31.8538C27.5957 29.5742 29.4658 27.7208 31.766 27.7208ZM37.8453 42.1862H25.6866C25.0089 42.1862 24.4616 41.5404 24.6701 40.9076C25.2109 39.2544 26.7812 38.0532 28.6383 38.0532H29.1726C29.9741 38.3826 30.8472 38.5699 31.766 38.5699C32.6847 38.5699 33.5644 38.3826 34.3593 38.0532H34.8936C36.7441 38.0532 38.3145 39.2479 38.8618 40.9076C39.0703 41.5404 38.523 42.1862 37.8453 42.1862ZM35.9362 15.3219C35.9362 14.1788 35.0044 13.2554 33.8511 13.2554H29.6809C28.5275 13.2554 27.5957 14.1788 27.5957 15.3219V21.5213H35.9362V15.3219Z" fill="#00A7A7"/>
</svg>
