<svg width="78" height="78" viewBox="0 0 78 78" fill="none" xmlns="http://www.w3.org/2000/svg">
<circle cx="39" cy="39" r="39" fill="#00A7A7"/>
<path d="M55.428 26.6464H45.4931V33.2106H32.2466V26.6464H22.3116C20.4833 26.6464 19 28.1165 19 29.9285V53.997C19 55.809 20.4833 57.2791 22.3116 57.2791H55.428C57.2563 57.2791 58.7397 55.809 58.7397 53.997V29.9285C58.7397 28.1165 57.2563 26.6464 55.428 26.6464ZM38.8698 37.5867C41.3053 37.5867 43.2854 39.5491 43.2854 41.9628C43.2854 44.3764 41.3053 46.3388 38.8698 46.3388C36.4344 46.3388 34.4543 44.3764 34.4543 41.9628C34.4543 39.5491 36.4344 37.5867 38.8698 37.5867ZM45.3068 52.903H32.4328C31.7153 52.903 31.1358 52.2192 31.3566 51.5491C31.9292 49.7987 33.5919 48.5269 35.5582 48.5269H36.1239C36.9725 48.8756 37.897 49.0739 38.8698 49.0739C39.8426 49.0739 40.774 48.8756 41.6157 48.5269H42.1815C44.1409 48.5269 45.8036 49.7919 46.3831 51.5491C46.6039 52.2192 46.0244 52.903 45.3068 52.903ZM43.2854 24.4584C43.2854 23.2481 42.2988 22.2703 41.0776 22.2703H36.6621C35.4409 22.2703 34.4543 23.2481 34.4543 24.4584V31.0225H43.2854V24.4584Z" fill="white"/>
</svg>
