<svg width="671" height="470" viewBox="0 0 671 470" fill="none" xmlns="http://www.w3.org/2000/svg">
<path d="M425.159 382.728C416.033 387.199 416.892 395.78 416.812 401.541C416.718 407.678 405.016 410.887 405.016 410.887C408.129 401.071 405.915 390.959 405.915 390.959L425.159 382.728Z" fill="#A0505A"/>
<path d="M434.834 405.328L432.754 406.456L428.393 396.478C428.165 395.955 427.655 395.646 427.131 395.646C426.957 395.646 426.769 395.686 426.595 395.753C426.152 395.941 425.83 396.358 425.776 396.841L423.857 411.304L398.614 425.054C397.862 423.255 402.546 418.743 405.029 410.887C405.029 410.887 416.744 407.678 416.825 401.541C416.905 395.78 416.06 387.186 425.172 382.728L427.091 381.908C437.559 386.729 434.834 405.328 434.834 405.328Z" fill="#FFCF2D"/>
<path d="M427.078 311.059V381.908L406.197 390.973L390.549 319.842C397.554 320.11 409.229 318.633 427.078 311.059Z" fill="white" stroke="#9A3B82" stroke-miterlimit="10"/>
<path d="M411.726 317.29L415.846 386.756" stroke="#9A3B82" stroke-miterlimit="10"/>
<path d="M427.078 311.059V329.604L391.542 324.461L390.549 319.842C397.554 320.11 409.229 318.633 427.078 311.059Z" fill="#9A3B82"/>
<path d="M532.319 262.985L518.818 265.832C518.362 265.926 517.905 265.778 517.583 265.443C517.355 265.187 517.234 264.879 517.234 264.556C517.234 264.207 517.369 263.858 517.651 263.603L525.166 256.553L523.502 255.062C523.502 255.062 506.056 258.487 505.062 269.377L506.391 270.827C513.249 277.569 520.643 274.091 525.81 272.345C530.748 270.68 536.64 278.347 537.807 279.932C537.821 279.932 537.848 279.932 537.861 279.932C545.645 279.677 551.16 282.443 552.516 281.194L532.319 262.985Z" fill="#FFCF2D"/>
<path d="M506.404 270.827C513.262 277.569 520.656 274.091 525.823 272.345C531.325 270.492 537.888 279.932 537.888 279.932C528.145 280.241 519.838 285.411 519.838 285.411L506.404 270.827Z" fill="#A0505A"/>
<path d="M423.039 311.664C423.039 311.664 426.434 334.613 452.483 334.183C478.531 333.754 519.556 285.277 519.556 285.277L505.129 269.458L423.039 311.664Z" fill="white" stroke="#9A3B82" stroke-miterlimit="10"/>
<path d="M438.056 305.433C438.915 311.476 442.967 317.169 455.327 316.968C473.686 316.672 499.627 292.568 513.342 278.361" stroke="#9A3B82" stroke-miterlimit="10"/>
<path d="M536.733 222.646C534.357 221.746 528.707 224.835 524.453 230.206C519.877 235.967 518.025 242.09 520.038 243.688L455.582 209.392C452.415 207.713 448.764 210.587 449.664 214.051L469.176 288.016C403.083 330.934 381.893 318.069 381.893 318.069V75.0121C381.893 75.0255 381.893 75.0255 381.906 75.0389C382.47 76.4758 388.522 75.4686 395.433 72.7695C401.794 70.2986 406.652 67.2638 406.961 65.6792L406.975 65.6658V142.249C406.975 147.056 409.565 151.474 413.752 153.824L536.733 222.646Z" fill="#C056A2"/>
<path d="M536.733 222.646C534.357 221.746 528.707 224.835 524.453 230.206C519.877 235.967 518.025 242.09 520.038 243.688L455.582 209.392C452.415 207.713 448.764 210.587 449.664 214.051L469.176 288.311C452.374 299.229 438.471 306.239 427.078 311.073C409.229 318.633 397.554 320.124 390.548 319.855C384.442 319.627 381.893 318.069 381.893 318.069V75.0121C381.893 75.0255 381.893 75.0255 381.906 75.0389C382.47 76.4758 388.522 75.4686 395.433 72.7695C401.794 70.2986 406.652 67.2638 406.961 65.6792L406.975 65.6658V142.249C406.975 147.056 409.565 151.474 413.752 153.824L536.733 222.646Z" fill="#E44DAB"/>
<path d="M444.282 203.429L520.038 244.548" stroke="white" stroke-miterlimit="10" stroke-linecap="round"/>
<path d="M415.55 154.818L407.055 204.222L450.415 174.343L415.55 154.818Z" fill="#FFCF2D"/>
<path d="M415.55 154.818L407.055 204.222L450.415 174.343" stroke="white" stroke-miterlimit="10" stroke-linecap="round"/>
<path d="M415.201 59.4618L359.226 70.9432C357.16 71.3729 355.026 69.5332 354.476 66.8341C353.925 64.1349 355.16 61.6104 357.227 61.1807L413.201 49.6992L415.201 59.4618Z" fill="white" stroke="#3FB1B5" stroke-miterlimit="10" stroke-linecap="round"/>
<path d="M415.181 59.4695C417.25 59.0451 418.48 56.516 417.928 53.8207C417.376 51.1253 415.25 49.2844 413.181 49.7088C411.112 50.1332 409.882 52.6623 410.434 55.3577C410.986 58.053 413.112 59.894 415.181 59.4695Z" fill="white" stroke="#3FB1B5" stroke-miterlimit="10" stroke-linecap="round"/>
<path d="M383.262 64.3498C383.262 64.3498 365.158 84.7075 367.131 89.1926C369.707 91.7575 371.801 92.8855 371.492 93.8389C371.157 94.8729 366.822 101.117 366.822 101.117L366.393 96.4843L362.246 97.854C362.246 97.854 366.621 91.462 366.903 89.5015C365.104 88.1318 361.441 85.2849 361.562 83.2975C361.696 81.1892 368.11 73.696 372.767 68.526L365.749 70.8492L364.366 64.3632L376.995 62.04L383.262 64.3498Z" fill="#FE5244"/>
<path d="M380.805 65.2361C382.91 65.2361 384.617 63.5286 384.617 61.4224C384.617 59.3161 382.91 57.6086 380.805 57.6086C378.701 57.6086 376.994 59.3161 376.994 61.4224C376.994 63.5286 378.701 65.2361 380.805 65.2361Z" fill="white" stroke="#FE5244" stroke-miterlimit="10"/>
<path d="M406.961 65.6791C406.653 67.2636 401.795 70.2985 395.434 72.7694C388.522 75.4551 382.47 76.4756 381.906 75.0388C381.906 75.0254 381.906 75.0254 381.893 75.0119C381.41 73.5616 386.536 70.2448 393.407 67.5725C400.318 64.8868 406.371 63.8662 406.935 65.3031C406.975 65.4105 406.988 65.5313 406.961 65.6791Z" fill="#9A3B82"/>
<path d="M402.304 54.3992L401.566 65.0615L401.217 70.1643C399.54 71.0506 397.567 71.9369 395.433 72.7695C391.81 74.1795 388.428 75.1195 385.945 75.5089V65.7598L396.131 63.6649C396.131 63.6649 396.695 60.0258 397.768 56.9775C398.829 53.9158 402.304 54.3992 402.304 54.3992Z" fill="#A0505A"/>
<path d="M396.413 63.2217C396.265 63.826 391.837 65.236 391.837 68.4588" stroke="#73325A" stroke-miterlimit="10" stroke-linecap="round"/>
<path d="M401.566 65.0615L401.217 70.1644C399.54 71.0507 397.567 71.937 395.433 72.7695C391.81 74.1795 388.428 75.1195 385.945 75.5089V71.1044C387.931 69.9361 390.522 68.7007 393.407 67.5727C396.413 66.391 399.258 65.5315 401.566 65.0615Z" fill="#73325A"/>
<path d="M394.897 59.7303L383.53 62.3354C382.926 62.4697 382.362 61.9863 382.362 61.3149V54.4126C382.362 53.486 382.926 52.6803 383.745 52.4117L394.977 48.7457C395.688 48.5175 396.4 49.0815 396.4 49.8737V57.7429C396.386 58.6963 395.769 59.5289 394.897 59.7303Z" fill="#A0505A"/>
<path d="M386.388 61.2611C385.771 61.3954 385.181 60.9254 385.181 60.2808V53.6605C385.181 52.7742 385.758 51.9954 386.603 51.7402" stroke="#73325A" stroke-miterlimit="10" stroke-linecap="round"/>
<path d="M389.663 60.5494C389.046 60.6837 388.455 60.2003 388.455 59.5423V52.7206C388.455 51.8074 389.032 51.0017 389.878 50.7466" stroke="#73325A" stroke-miterlimit="10" stroke-linecap="round"/>
<path d="M393.326 59.7707C392.709 59.9049 392.118 59.4081 392.118 58.7367V51.6732C392.118 50.7332 392.695 49.9007 393.541 49.6321" stroke="#73325A" stroke-miterlimit="10" stroke-linecap="round"/>
<path d="M531.74 235.994C527.164 241.768 522.038 245.273 520.025 243.675C518.012 242.077 519.863 235.967 524.44 230.193C528.707 224.821 534.344 221.733 536.719 222.632L537.189 222.901C539.215 224.512 536.316 230.233 531.74 235.994Z" fill="#9A3B82"/>
<path d="M552.447 245.703L549.401 247.314C548.193 247.959 546.69 247.502 546.046 246.293L542.838 240.331L537.98 238.666C538.517 238.867 540.611 239.942 539.953 243.849L528.546 239.593L524.627 238.129L520.91 235.752C521.782 233.979 522.977 232.073 524.466 230.206C525.715 228.635 527.07 227.265 528.425 226.137L532.304 228.85L536.276 229.279L542.731 229.964C543.764 230.072 544.757 230.421 545.63 230.971L550.783 234.637C551.535 235.175 552.031 235.98 552.152 236.893L553.199 244.225C553.293 244.83 552.984 245.421 552.447 245.703Z" fill="#A0505A"/>
<path d="M544.945 233.765L549.414 236.947C550.058 237.404 550.488 238.116 550.609 238.908L551.521 244.83C551.588 245.354 551.333 245.864 550.864 246.106" stroke="#73325A" stroke-miterlimit="10" stroke-linecap="round"/>
<path d="M542.181 234.825L546.65 238.008C547.294 238.465 547.723 239.176 547.844 239.969L548.757 245.891C548.824 246.414 548.569 246.925 548.099 247.166" stroke="#73325A" stroke-miterlimit="10" stroke-linecap="round"/>
<path d="M537.98 238.653L534.732 237.552" stroke="#73325A" stroke-miterlimit="10" stroke-linecap="round"/>
<path d="M536.276 229.279C535.189 231.334 533.605 233.671 531.753 236.007C530.693 237.337 529.62 238.545 528.546 239.593L524.627 238.129L520.91 235.752C521.782 233.979 522.977 232.073 524.466 230.206C525.714 228.635 527.07 227.265 528.425 226.137L532.304 228.85L536.276 229.279Z" fill="#73325A"/>
<path d="M419.093 118.964L447.798 131.708L458.038 161.68L437.237 146.801L427.534 134.944L419.093 118.964Z" fill="#FE5244"/>
<path d="M427.534 134.944C427.534 134.944 436.928 136.555 440.713 147.029L442.712 145.015C442.712 145.015 439.075 134.823 429.467 132.204L427.534 134.944Z" fill="#9A3B82"/>
<path d="M483.522 147.956C480.301 146.13 477.322 145.123 476.369 145.485C476.436 145.324 476.477 145.136 476.463 144.948C476.409 144.357 475.926 143.914 475.349 143.914C475.322 143.914 475.296 143.914 475.255 143.914C474.638 143.968 474.182 144.505 474.222 145.123C474.222 145.163 474.235 145.203 474.235 145.23L470.827 147.419C470.062 147.916 469.122 147.943 468.317 147.5C467.512 147.056 467.042 146.251 467.042 145.338V140.436C467.042 138.301 465.982 136.327 464.197 135.145C462.412 133.964 460.171 133.776 458.212 134.608L451.717 137.509L449.247 130.271L420.394 117.473C420.22 117.393 420.005 117.473 419.925 117.661C419.844 117.836 419.925 118.051 420.113 118.131L448.67 130.808L458.856 160.633C458.91 160.78 459.044 160.874 459.192 160.874C459.232 160.874 459.272 160.861 459.312 160.861C459.5 160.794 459.594 160.592 459.54 160.404L451.958 138.194L458.507 135.266C460.252 134.514 462.238 134.689 463.808 135.736C465.392 136.784 466.331 138.529 466.331 140.436V145.338C466.331 146.519 466.948 147.567 467.982 148.131C468.465 148.399 468.988 148.534 469.512 148.534C470.102 148.534 470.693 148.359 471.216 148.023L474.598 145.861C474.799 146.049 475.067 146.157 475.349 146.157C475.376 146.157 475.416 146.157 475.443 146.157C475.685 146.143 475.899 146.049 476.06 145.902C476.06 146.855 478.503 148.99 481.858 150.897C482.583 151.313 483.307 151.689 483.992 152.012C484.408 151.662 484.757 151.246 485.038 150.749C485.32 150.266 485.495 149.742 485.575 149.205C484.931 148.802 484.247 148.372 483.522 147.956ZM475.376 145.593C475.067 145.62 474.812 145.391 474.786 145.096C474.759 144.8 474.987 144.532 475.282 144.505C475.577 144.478 475.846 144.706 475.873 145.002C475.899 145.297 475.671 145.566 475.376 145.593Z" fill="#FFCF2D"/>
<path d="M425.669 152.602L420.703 180.238L437.626 167.186V149.957L425.669 152.602Z" fill="#A0505A"/>
<path d="M425.668 152.602L425.051 156.067L432.539 171.107L437.625 167.186V149.957L425.668 152.602Z" fill="#73325A"/>
<path d="M427.816 135.226C427.816 135.226 419.348 133.118 416.704 138.032C414.06 142.947 421.79 144.304 422.112 142.585C422.26 141.833 408.196 141.846 410.557 152.495C413.013 163.587 424.085 159.773 424.085 159.773L425.373 152.602L427.816 135.226Z" fill="white" stroke="#9A3B82" stroke-miterlimit="10"/>
<path d="M437.491 151.125C437.491 151.125 424.85 167.616 435.962 174.625C444.872 180.239 447.167 172.329 444.778 171.241C442.188 170.06 436.243 192.351 454.548 192.284C472.893 192.217 467.284 169.294 458.037 161.694C453.622 158.068 438.887 147.929 438.887 147.929L437.491 151.125Z" fill="white" stroke="#9A3B82" stroke-miterlimit="10"/>
<path d="M437.116 146.989L438.068 147.594C438.994 148.184 439.263 149.406 438.686 150.333L438.498 150.615C437.907 151.542 436.686 151.824 435.76 151.233L434.74 150.588C433.613 151.394 426.836 155.919 422.649 151.421C418.583 147.056 427.977 134.286 427.977 134.286C435.948 136.784 439.061 143.874 439.061 143.874L437.116 146.989Z" fill="#A0505A"/>
<path d="M425.36 137.187C425.36 137.187 427.561 138.006 427.347 139.899C427.132 141.793 425.146 144.774 425.615 145.284C426.085 145.794 426.716 145.888 426.716 145.888" stroke="#73325A" stroke-miterlimit="10" stroke-linecap="round"/>
<path d="M424.823 147.03C424.823 147.03 426.46 147.943 428.688 147.594" stroke="#73325A" stroke-miterlimit="10" stroke-linecap="round"/>
<path d="M431.841 144.342C432.031 143.843 431.966 143.355 431.696 143.252C431.426 143.149 431.053 143.47 430.863 143.969C430.673 144.468 430.738 144.956 431.008 145.059C431.278 145.162 431.651 144.841 431.841 144.342Z" fill="#73325A"/>
<path d="M425.645 141.498C425.803 141.082 425.746 140.674 425.518 140.587C425.289 140.5 424.975 140.766 424.817 141.182C424.659 141.598 424.716 142.006 424.944 142.093C425.173 142.18 425.486 141.914 425.645 141.498Z" fill="#73325A"/>
<path d="M436.418 149.299C436.794 148.708 437.572 148.534 438.163 148.91" stroke="#73325A" stroke-miterlimit="10" stroke-linecap="round"/>
<path d="M431.466 140.799C431.466 140.799 433.103 141.242 433.949 143.189" stroke="#73325A" stroke-miterlimit="10" stroke-linecap="round"/>
<path d="M433.908 137.536C433.908 137.536 432.123 143.458 437.236 147.5C440.242 149.877 440.417 147.016 440.417 147.016C440.417 147.016 440.028 141.202 433.908 137.536Z" fill="white" stroke="#9A3B82" stroke-miterlimit="10"/>
</svg>
