<svg width="671" height="470" viewBox="0 0 671 470" fill="none" xmlns="http://www.w3.org/2000/svg">
<path d="M315.357 289.292C313.948 284.149 290.678 288.969 265.046 298.302C240.527 307.232 220.598 319.278 220.384 324.125L206.937 225.976C206.736 224.593 205.555 223.572 204.159 223.572C203.381 223.572 202.683 223.881 202.173 224.391C201.663 224.902 201.354 225.6 201.354 226.379V310.2C201.193 307.904 195.275 306.064 188.001 306.064C180.728 306.064 174.823 307.904 174.648 310.2V216.012C174.648 208.062 178.809 200.703 185.599 196.594L194.416 191.263L230.731 169.321L264.509 148.748V113.633C264.509 115.137 270.722 116.345 278.049 116.345C285.363 116.345 291.59 115.15 291.59 113.633V151.703C291.59 160.136 287.47 168.099 280.895 173.363L260.349 188.054C256.846 190.551 256 195.413 258.443 198.958C272.064 218.684 313.921 276.253 315.344 288.916C315.357 289.037 315.357 289.171 315.357 289.292Z" fill="#00A7A7"/>
<path d="M264.106 145.74V156.08" stroke="white" stroke-miterlimit="10" stroke-linecap="round"/>
<path d="M194.443 191.263L239.226 221.236L230.758 169.321L221.055 175.068L223.337 196.352L204.092 185.22L194.443 191.263Z" stroke="#FFCF2D" stroke-miterlimit="10" stroke-linecap="round"/>
<path d="M313.921 290.581C312.31 286.136 290.973 291.266 265.327 300.599C239.681 309.931 219.994 321.735 221.618 326.18C223.228 330.625 245.546 326.032 271.192 316.699C296.837 307.367 315.545 295.026 313.921 290.581Z" stroke="#3FB1B5" stroke-miterlimit="10" stroke-linecap="round"/>
<path d="M255.517 383.305L254.04 385.883L252.403 388.757C238.245 390.53 235.749 381.264 235.749 381.264L237.883 377.021C243.6 380.539 250.847 382.405 255.517 383.305Z" fill="#E57281"/>
<path d="M306.513 315.88C296.448 333.243 260.254 384.057 260.254 384.057C260.254 384.057 258.362 383.856 255.517 383.305C250.847 382.392 243.6 380.539 237.869 377.021C236.541 376.201 235.306 375.302 234.192 374.295L260.428 320.983L267.058 307.004L270.735 299.242C271.178 299.081 271.621 298.933 272.05 298.786C272.265 298.705 272.48 298.638 272.708 298.557C273.365 298.329 274.01 298.114 274.654 297.899C275.19 297.725 275.714 297.55 276.237 297.362C277.834 296.825 279.404 296.328 280.934 295.845C291.214 292.595 300.004 290.406 305.936 289.735C307.251 291.575 308.754 294.22 309.613 297.537C310.861 302.385 310.713 308.642 306.513 315.88Z" fill="white" stroke="#9A3B82" stroke-miterlimit="10"/>
<path d="M262.575 422.933C262.119 424.934 259.636 425.645 258.187 424.195L225.751 391.846L235.897 381.25C235.897 381.25 238.245 390.503 252.417 388.744C263.864 406.04 263.837 417.36 262.575 422.933Z" fill="white" stroke="#0071E3" stroke-miterlimit="10"/>
<path d="M261.247 424.974C259.046 425.82 256.563 425.377 254.778 423.806L237.842 408.913C237.426 408.537 237.373 407.906 237.722 407.463C238.057 407.047 238.03 406.429 237.641 406.053L236.259 404.71C235.883 404.334 235.279 404.321 234.876 404.67L234.554 404.938C234.165 405.274 233.602 405.274 233.226 404.938L224.127 397.029C222.946 396.008 222.906 394.182 224.02 393.094L225.603 391.563L258.241 424.531C259.18 425.471 260.535 425.511 261.502 424.88L261.247 424.974Z" fill="#0071E3"/>
<path d="M256.832 393.068C256.832 393.068 259.583 395.512 253.007 398.479" stroke="#0071E3" stroke-miterlimit="10" stroke-linecap="round"/>
<path d="M258.563 396.009C258.563 396.009 261.314 398.453 254.738 401.42" stroke="#0071E3" stroke-miterlimit="10" stroke-linecap="round"/>
<path d="M260.293 398.949C260.293 398.949 263.045 401.393 256.469 404.361" stroke="#0071E3" stroke-miterlimit="10" stroke-linecap="round"/>
<path d="M309.612 297.537C300.889 297.523 291.951 299.041 283.336 301.431C282.651 299.014 281.685 297.094 280.934 295.845C291.213 292.595 300.003 290.406 305.935 289.735C307.264 291.588 308.767 294.233 309.612 297.537Z" fill="#9A3B82"/>
<path d="M218.652 381.949L216.062 385.266L214.022 387.871C199.757 387.589 198.616 378.068 198.616 378.068L201.716 373.623C207.098 377.947 214.371 380.633 218.652 381.949Z" fill="#E57281"/>
<path d="M283.632 312.295C282.853 315.612 281.189 319.184 278.129 322.863C265.568 337.997 222.195 382.929 222.195 382.929C222.195 382.929 205.259 379.115 198.025 369.984L227.227 328.476L238.004 313.154C245.438 309.193 254.886 304.99 265.327 301.176C270.775 299.188 276.022 297.402 280.934 295.845C281.672 297.094 282.652 299.027 283.336 301.431C284.195 304.412 284.611 308.145 283.632 312.295Z" fill="white" stroke="#9A3B82" stroke-miterlimit="10"/>
<path d="M219.175 423.161C218.437 425.081 215.887 425.43 214.652 423.779L187.182 387.105L198.736 378.068C198.736 378.068 199.729 387.589 214.008 387.871C222.879 406.63 221.228 417.83 219.175 423.161Z" fill="white" stroke="#0071E3" stroke-miterlimit="10"/>
<path d="M217.578 424.88C215.284 425.403 212.881 424.598 211.351 422.812L196.724 405.677C196.361 405.247 196.402 404.616 196.804 404.227C197.207 403.864 197.247 403.246 196.925 402.817L195.744 401.299C195.422 400.883 194.831 400.776 194.375 401.058L194.026 401.286C193.597 401.554 193.047 401.474 192.711 401.098L184.793 392.007C183.773 390.825 183.988 389.026 185.25 388.112L187.034 386.823L214.639 424.007C215.431 425.068 216.773 425.296 217.82 424.826L217.578 424.88Z" fill="#0071E3"/>
<path d="M218.062 392.866C218.062 392.866 220.437 395.673 213.499 397.674" stroke="#0071E3" stroke-miterlimit="10" stroke-linecap="round"/>
<path d="M219.632 396.022C219.632 396.022 222.007 398.829 215.069 400.829" stroke="#0071E3" stroke-miterlimit="10" stroke-linecap="round"/>
<path d="M220.92 399.178C220.92 399.178 223.296 401.984 216.357 403.985" stroke="#0071E3" stroke-miterlimit="10" stroke-linecap="round"/>
<path d="M283.349 301.431C277.74 302.989 272.264 304.909 267.071 306.99C244.646 316.028 227.455 328.302 227.24 328.449L238.016 313.127C245.451 309.166 254.899 304.963 265.34 301.149C267.165 300.491 268.963 299.846 270.748 299.215C271.191 299.054 271.634 298.906 272.063 298.759C272.278 298.678 272.492 298.611 272.721 298.53C273.378 298.302 274.022 298.087 274.667 297.872C275.203 297.698 275.727 297.523 276.25 297.335C277.847 296.798 279.417 296.301 280.947 295.818C281.685 297.107 282.651 299.027 283.349 301.431Z" fill="#9A3B82"/>
<path d="M201.059 312.013C201.059 314.35 195.221 316.256 188.015 316.256C180.808 316.256 174.971 314.363 174.971 312.013C174.971 311.986 174.971 311.946 174.971 311.919C175.132 309.623 180.916 307.783 188.015 307.783C195.114 307.783 200.898 309.623 201.059 311.919C201.059 311.946 201.059 311.986 201.059 312.013Z" fill="white" stroke="#3FB1B5" stroke-miterlimit="10" stroke-linecap="round"/>
<path d="M195.798 308.857V319.882C195.798 323.454 193.825 326.717 190.685 328.396L185.331 331.243C184.029 331.941 182.566 332.304 181.09 332.304C180.459 332.304 180.03 331.78 180.03 331.229C180.03 331.001 180.11 330.759 180.271 330.558L182.271 328.141C182.553 327.805 182.311 327.308 181.882 327.308H170.112L167.965 330.021C166.824 331.458 165.08 332.304 163.255 332.304H162.637C161.872 332.304 161.403 331.484 161.778 330.826L162.02 330.383C161.282 330.692 160.477 330.867 159.658 330.867H159.041C158.276 330.867 157.806 330.047 158.182 329.389L163 324.072L166.341 322.756V322.769L182.942 316.243V308.401C184.512 308.199 186.216 308.078 188.015 308.078C190.927 308.065 193.611 308.36 195.798 308.857Z" fill="#E57281"/>
<path d="M165.912 323.32L161.886 330.236" stroke="#9A3B82" stroke-miterlimit="10" stroke-linecap="round"/>
<path d="M181.251 329.349L183.72 326.328C184.203 325.737 183.787 324.864 183.022 324.864" stroke="#9A3B82" stroke-miterlimit="10" stroke-linecap="round"/>
<path d="M195.798 308.857V315.746C193.61 316.243 190.926 316.538 188.014 316.538C186.216 316.538 184.512 316.431 182.941 316.216V308.374C184.512 308.172 186.216 308.052 188.014 308.052C190.913 308.065 193.61 308.36 195.798 308.857Z" fill="#9A3B82"/>
<path d="M291.308 112.196C291.308 113.713 285.377 114.908 278.063 114.908C270.749 114.908 264.817 113.713 264.817 112.196C264.817 110.678 270.749 109.429 278.063 109.429C285.377 109.429 291.308 110.692 291.308 112.196Z" stroke="#3FB1B5" stroke-miterlimit="10" stroke-linecap="round"/>
<path d="M274.024 114.412C272.386 114.304 270.897 114.143 269.608 113.915V100.876C269.608 100.446 269.702 100.016 269.89 99.6267L274.104 90.925C274.882 89.3135 276.52 88.293 278.305 88.293H283.471L272.172 109.094C272.118 109.188 272.078 109.282 272.037 109.376C271.38 111.001 272.198 113.082 274.024 114.412Z" fill="#E57281"/>
<path d="M283.74 109.134L285.404 106.233V114.103C284.035 114.277 282.491 114.425 280.841 114.492L283.74 109.134Z" fill="#9A3B82"/>
<path d="M308.083 63.5977L280.572 114.25C279.552 116.13 276.761 116.573 274.318 115.244C271.876 113.915 270.735 111.323 271.755 109.456L299.266 58.8037L308.083 63.5977Z" fill="white" stroke="#FE5244" stroke-miterlimit="10"/>
<path d="M308.073 63.6164C309.093 61.7398 307.944 59.1448 305.509 57.8203C303.074 56.4958 300.273 56.9435 299.254 58.8201C298.234 60.6967 299.383 63.2917 301.818 64.6162C304.253 65.9406 307.054 65.493 308.073 63.6164Z" fill="white" stroke="#FE5244" stroke-miterlimit="10"/>
<path d="M291.228 82.1828L304.232 71.4131L304.03 75.3342L308.19 76.3682L298.26 82.5051C305.882 80.8668 319.571 78.5571 321.651 82.5857C322.469 84.1702 320.926 87.4065 319.893 89.7297C319.248 94.6311 344.934 88.5614 345.23 88.4942L341.271 92.1602L345.23 94.4163C345.23 94.4163 323.677 98.5254 318.121 97.3974C314.981 96.7528 317.477 92.5362 319.665 89.4477C320.336 87.0708 314.994 86.292 292.784 88.7091L291.228 82.1828Z" fill="#FE5244"/>
<path d="M291.415 88.6555C293.535 88.6555 295.253 86.936 295.253 84.8149C295.253 82.6938 293.535 80.9744 291.415 80.9744C289.296 80.9744 287.577 82.6938 287.577 84.8149C287.577 86.936 289.296 88.6555 291.415 88.6555Z" fill="white" stroke="#FE5244" stroke-miterlimit="10"/>
<path d="M294.422 97.6795L293.188 100.58L291.738 103.964L290.96 105.804L289.766 108.61C289.739 108.691 289.698 108.758 289.658 108.839C289.658 108.839 289.658 108.852 289.645 108.852C289.256 109.51 288.517 109.926 287.712 109.926H278.238C277.097 109.926 276.305 108.839 276.735 107.831L277.419 106.22L278.936 102.661L280.237 99.5997L281.378 96.9006C281.714 96.1083 282.532 95.598 283.431 95.598H292.906C294.073 95.5846 294.852 96.6723 294.422 97.6795Z" fill="#E57281"/>
<path d="M280.572 99.5862C280.961 99.1431 281.539 98.8879 282.156 98.8879H291.201C292.154 98.8879 292.838 99.7071 292.744 100.58" stroke="#9A3B82" stroke-miterlimit="10" stroke-linecap="round"/>
<path d="M279.338 102.661C279.727 102.272 280.264 102.044 280.841 102.044H289.886C290.919 102.044 291.644 103.011 291.376 103.964" stroke="#9A3B82" stroke-miterlimit="10" stroke-linecap="round"/>
<path d="M277.915 106.207C278.304 105.844 278.828 105.629 279.378 105.629H288.423C289.497 105.629 290.235 106.663 289.886 107.643" stroke="#9A3B82" stroke-miterlimit="10" stroke-linecap="round"/>
<path d="M288.665 88.2795V88.5213C288.665 90.9787 286.679 92.9795 284.209 92.9795H279.539V88.2795H288.665Z" fill="#E57281"/>
<path d="M175.252 193.331C174.823 193.976 174.38 194.58 173.937 195.131C173.454 195.01 172.984 194.808 172.555 194.513C172.125 194.218 171.763 193.868 171.468 193.452C171.817 192.848 172.206 192.203 172.649 191.559C174.823 188.336 177.158 186.12 177.883 186.604C178.607 187.087 177.426 190.108 175.252 193.331Z" fill="#FFCF2D"/>
<path d="M195.034 144.948L178.272 169.711C178.071 170.006 178.353 170.369 178.688 170.275L186.7 167.696C185.72 168.865 185.116 170.382 185.116 172.02V179.822C185.116 182.87 182.687 185.355 179.654 185.435C179.466 185.086 179.091 184.844 178.648 184.844C178.339 184.844 178.057 184.965 177.843 185.18C177.628 185.395 177.507 185.677 177.521 185.986C177.521 186.604 178.031 187.114 178.661 187.114C179.225 187.114 179.695 186.684 179.775 186.147C183.13 185.999 185.828 183.22 185.828 179.822V172.02C185.828 170.06 186.794 168.274 188.243 167.199L204.361 162.016L225.054 144.948H195.034ZM178.956 186.254C178.876 186.335 178.769 186.375 178.661 186.375C178.554 186.375 178.447 186.335 178.366 186.254C178.285 186.174 178.245 186.066 178.245 185.959C178.245 185.852 178.285 185.744 178.366 185.664C178.447 185.583 178.554 185.543 178.661 185.543C178.782 185.543 178.876 185.583 178.956 185.664C179.037 185.744 179.077 185.838 179.077 185.959C179.091 186.08 179.037 186.174 178.956 186.254Z" fill="#3FB1B5"/>
<path d="M176.809 169.657C176.742 169.657 176.675 169.643 176.608 169.59C176.447 169.482 176.407 169.254 176.514 169.093L193.987 143.283H225.631C225.833 143.283 225.994 143.444 225.994 143.646C225.994 143.847 225.833 144.008 225.631 144.008H194.363L177.104 169.496C177.037 169.603 176.93 169.657 176.809 169.657Z" fill="#3FB1B5"/>
<path d="M194.47 165.494L192.457 164.581L192.564 164.272C192.605 164.151 193.584 161.304 196 158.283C198.241 155.476 202.173 152.025 208.226 151.434L208.574 151.407L208.923 153.945L208.212 154.039L207.957 152.186C202.348 152.831 198.67 156.08 196.564 158.726C194.671 161.089 193.678 163.399 193.37 164.205L194.779 164.849L194.47 165.494Z" fill="white"/>
<path d="M204.669 185.073L200.603 171.778L210.117 167.119L214.036 170.1L220.773 175.216L222.813 195.547L204.669 185.073Z" fill="#E57281"/>
<path d="M214.036 170.1L206.776 186.295L204.669 185.073L200.603 171.778L210.117 167.119L214.036 170.1Z" fill="#9A3B82"/>
<path d="M205.97 172.651C205.286 172.718 203.904 172.02 202.333 171.026L200.495 172.517C199.435 173.376 197.878 173.229 197.019 172.168C196.643 171.711 196.455 171.147 196.455 170.597C196.455 169.885 196.764 169.173 197.368 168.676L198.12 168.059C196.147 166.582 194.604 165.306 194.604 165.306C194.604 165.306 198.026 155.02 208.963 153.972C208.963 153.972 214.76 165.964 215.15 167.105C215.539 168.26 209.835 172.262 205.97 172.651Z" fill="#E57281"/>
<path d="M198.12 168.059C196.147 166.582 194.604 165.306 194.604 165.306C194.604 165.306 195.865 161.506 199.327 158.283C195.704 161.895 201.112 165.924 198.12 168.059Z" fill="#FFCF2D"/>
<path d="M200.025 161.13C200.025 161.13 200.602 159.572 202.065 158.766" stroke="#9A3B82" stroke-miterlimit="10" stroke-linecap="round"/>
<path d="M210.493 157.182C210.493 157.182 208.467 156.9 207.46 157.517C206.454 158.135 206.454 161.331 208.064 163.332" stroke="#9A3B82" stroke-miterlimit="10" stroke-linecap="round"/>
<path d="M209.03 165.333C209.03 165.333 207.782 166.447 205.661 165.628" stroke="#9A3B82" stroke-miterlimit="10" stroke-linecap="round"/>
<path d="M205.863 165.037C205.863 165.037 205.42 165.669 205.446 166.38" stroke="#9A3B82" stroke-miterlimit="10" stroke-linecap="round"/>
<path d="M203.238 163.139C203.453 163.082 203.535 162.692 203.421 162.27C203.308 161.847 203.042 161.551 202.827 161.609C202.613 161.667 202.53 162.056 202.644 162.479C202.757 162.901 203.023 163.197 203.238 163.139Z" fill="#9A3B82"/>
<path d="M209.238 160.511C209.431 160.459 209.502 160.098 209.396 159.704C209.29 159.31 209.048 159.033 208.855 159.084C208.662 159.136 208.591 159.498 208.696 159.892C208.802 160.286 209.044 160.563 209.238 160.511Z" fill="#9A3B82"/>
<path d="M203.031 171.832L199.931 169.415C199.582 169.147 199.099 169.174 198.777 169.469L198.589 169.644C198.227 169.993 198.227 170.557 198.589 170.906" stroke="#9A3B82" stroke-miterlimit="10" stroke-linecap="round"/>
</svg>
