<svg width="78" height="78" viewBox="0 0 78 78" fill="none" xmlns="http://www.w3.org/2000/svg">
<circle cx="39" cy="39" r="39" fill="#D65191"/>
<g clip-path="url(#clip0_2070_2166)">
<path d="M45.9383 42.1672L39.087 49.0614L32.2356 42.1672C27.1007 42.3913 23 46.6188 23 51.8364V52.5301C23 54.4452 24.5441 55.9989 26.4472 55.9989H51.7267C53.6299 55.9989 55.1739 54.4452 55.1739 52.5301V51.8364C55.1739 46.6188 51.0732 42.3913 45.9383 42.1672ZM23.9767 24.7657L24.4363 24.8741V29.0944C23.9336 29.3979 23.5745 29.9254 23.5745 30.5614C23.5745 31.1684 23.9049 31.6743 24.3717 31.985L23.2514 36.4872C23.1293 36.9858 23.4022 37.4989 23.7972 37.4989H26.7991C27.1941 37.4989 27.467 36.9858 27.3449 36.4872L26.2246 31.985C26.6914 31.6743 27.0217 31.1684 27.0217 30.5614C27.0217 29.9254 26.6627 29.3979 26.1599 29.0944V25.2932L30.8998 26.4422C30.2822 27.6852 29.8944 29.0727 29.8944 30.5614C29.8944 35.6706 34.0095 39.8114 39.087 39.8114C44.1644 39.8114 48.2795 35.6706 48.2795 30.5614C48.2795 29.0727 47.8989 27.6852 47.2741 26.4422L54.19 24.7657C55.4971 24.4477 55.4971 22.8073 54.19 22.4893L40.5161 19.1651C39.5825 18.9411 38.5986 18.9411 37.665 19.1651L23.9767 22.4821C22.6768 22.8 22.6768 24.4477 23.9767 24.7657Z" fill="white"/>
</g>
<defs>
<clipPath id="clip0_2070_2166">
<rect width="32.1739" height="37" fill="white" transform="translate(23 19)"/>
</clipPath>
</defs>
</svg>
