<svg width="133" height="160" viewBox="0 0 133 160" fill="none" xmlns="http://www.w3.org/2000/svg">
<rect x="0.5" y="28" width="132" height="132" rx="66" fill="#D65191"/>
<path d="M18.9922 20.3793V21.1662V35.6521V36.209L18.5188 36.5022C17.0918 37.3863 16.1094 38.8951 16.1094 40.6875C16.1094 42.394 17.0104 43.84 18.34 44.7482L18.9107 45.1381L18.7478 45.8097L15.001 61.2594C15.0009 61.26 15.0008 61.2605 15.0006 61.2611C14.8516 61.8874 14.9512 62.5072 15.1786 62.9418C15.4118 63.3875 15.6849 63.5 15.8541 63.5H25.8959C26.0651 63.5 26.3382 63.3875 26.5714 62.9418C26.7988 62.5072 26.8984 61.8875 26.7494 61.2612C26.7493 61.2606 26.7491 61.26 26.749 61.2594L23.0022 45.8097L22.8393 45.1381L23.41 44.7482C24.7396 43.84 25.6406 42.394 25.6406 40.6875C25.6406 38.8951 24.6582 37.3863 23.2312 36.5022L22.7578 36.209V35.6521V22.6049V21.3256L23.9992 21.6344L39.8547 25.5784L41.0503 25.8758L40.5133 26.9846C38.503 31.1359 37.25 35.7501 37.25 40.6875C37.25 57.7025 50.5976 71.4375 67 71.4375C83.4024 71.4375 96.75 57.7025 96.75 40.6875C96.75 35.7472 95.5196 31.1343 93.4887 26.9887L92.9441 25.8772L94.1453 25.5784L117.279 19.8239L18.9922 20.3793ZM18.9922 20.3793L18.2274 20.1942M18.9922 20.3793L18.2274 20.1942M18.2274 20.1942L16.6942 19.8232M18.2274 20.1942L16.6942 19.8232M16.6942 19.8232C14.972 19.3893 14.1935 18.1068 14.1935 16.875C14.1935 15.6424 14.9729 14.3592 16.6971 13.926C16.6975 13.9259 16.6978 13.9258 16.6981 13.9258L62.4824 2.54148C62.4829 2.54138 62.4833 2.54127 62.4837 2.54117C65.4489 1.81132 68.575 1.81131 71.5401 2.54112C71.5406 2.54124 71.5411 2.54136 71.5416 2.54148L117.279 13.9509C117.279 13.9509 117.279 13.9509 117.279 13.9509C119.021 14.3859 119.8 15.6674 119.8 16.8874C119.8 18.1072 119.022 19.3886 117.28 19.8237L16.6942 19.8232ZM66.2817 104.883L67 105.625L67.7183 104.883L90.3204 81.5461C106.734 82.5194 119.812 96.474 119.812 113.712V116.094C119.812 122.145 115.065 127 109.281 127H24.7188C18.9347 127 14.1875 122.145 14.1875 116.094V113.712C14.1875 96.474 27.2663 82.5194 43.6796 81.5461L66.2817 104.883Z" fill="white" stroke="#D65191" stroke-width="2"/>
</svg>
