<svg width="61" height="61" viewBox="0 0 61 61" fill="none" xmlns="http://www.w3.org/2000/svg">
<path d="M37.3352 33.916L31 40.4375L24.6648 33.916C19.9168 34.1279 16.125 38.127 16.125 43.0625V43.7188C16.125 45.5303 17.5527 47 19.3125 47H42.6875C44.4473 47 45.875 45.5303 45.875 43.7188V43.0625C45.875 38.127 42.0832 34.1279 37.3352 33.916ZM17.0281 17.4551L17.4531 17.5576V21.5498C16.9883 21.8369 16.6562 22.3359 16.6562 22.9375C16.6562 23.5117 16.9617 23.9902 17.3934 24.2842L16.3574 28.543C16.2445 29.0147 16.4969 29.5 16.8621 29.5H19.6379C20.0031 29.5 20.2555 29.0147 20.1426 28.543L19.1066 24.2842C19.5383 23.9902 19.8438 23.5117 19.8438 22.9375C19.8438 22.3359 19.5117 21.8369 19.0469 21.5498V17.9541L23.4297 19.041C22.8586 20.2168 22.5 21.5293 22.5 22.9375C22.5 27.7705 26.3051 31.6875 31 31.6875C35.6949 31.6875 39.5 27.7705 39.5 22.9375C39.5 21.5293 39.148 20.2168 38.5703 19.041L44.9652 17.4551C46.1738 17.1543 46.1738 15.6025 44.9652 15.3018L32.3215 12.1572C31.4582 11.9453 30.5484 11.9453 29.6852 12.1572L17.0281 15.2949C15.8262 15.5957 15.8262 17.1543 17.0281 17.4551Z" fill="#D65191"/>
<circle cx="30.5" cy="30.5" r="30" stroke="#D65191"/>
</svg>
