<?xml version="1.0" encoding="UTF-8" standalone="no"?>
<!DOCTYPE svg PUBLIC "-//W3C//DTD SVG 1.1//EN" "http://www.w3.org/Graphics/SVG/1.1/DTD/svg11.dtd">
<svg width="100%" height="100%" viewBox="0 0 750 500" version="1.1" xmlns="http://www.w3.org/2000/svg" xmlns:xlink="http://www.w3.org/1999/xlink" xml:space="preserve" xmlns:serif="http://www.serif.com/" style="fill-rule:evenodd;clip-rule:evenodd;stroke-miterlimit:10;">
    <g transform="matrix(1,0,0,1,573.589,164.048)">
        <g id="BACKGROUND">
            <path d="M0,-0.001C0,34.257 -27.771,62.028 -62.029,62.028C-96.286,62.028 -124.057,34.257 -124.057,-0.001C-124.057,-34.258 -96.286,-62.029 -62.029,-62.029C-27.771,-62.029 0,-34.258 0,-0.001" style="fill:rgb(240,239,255);fill-rule:nonzero;"/>
        </g>
    </g>
    <g id="OBJECTS">
        <g transform="matrix(1,0,0,1,67.5142,438.708)">
            <path d="M0,0L582.575,0" style="fill:none;stroke:rgb(211,198,252);stroke-width:1.05px;"/>
        </g>
        <g transform="matrix(-1,-0,-0,1,329.622,443.996)">
            <path d="M-182.086,-11.409L-11.409,-11.409C-5.108,-11.409 0,-6.301 0,0L-182.086,0L-182.086,-11.409Z" style="fill:rgb(143,154,248);fill-rule:nonzero;"/>
        </g>
        <g transform="matrix(1,0,0,1,567.051,443.996)">
            <path d="M0,-87.91L-118.137,-87.91C-121.416,-87.91 -124.377,-85.954 -125.665,-82.939L-158.245,-6.607C-159.581,-3.477 -157.285,0 -153.881,0L-31.852,0C-28.573,0 -25.611,-1.956 -24.324,-4.971L6.729,-77.722C8.788,-82.549 5.248,-87.91 0,-87.91" style="fill:rgb(184,195,255);fill-rule:nonzero;"/>
        </g>
        <g transform="matrix(1,0,0,1,505.881,401.714)">
            <path d="M0,-0.001C-1.799,7.329 -9.201,13.271 -16.531,13.271C-23.861,13.271 -28.344,7.329 -26.544,-0.001C-24.745,-7.331 -17.344,-13.272 -10.014,-13.272C-2.684,-13.272 1.8,-7.331 0,-0.001" style="fill:white;fill-rule:nonzero;"/>
        </g>
        <g transform="matrix(1,0,0,1,329.302,449.814)">
            <path d="M0,0L207.332,0" style="fill:none;stroke:rgb(211,198,252);stroke-width:1.05px;"/>
        </g>
        <g transform="matrix(1,0,0,1,417.843,455.716)">
            <path d="M0,0L109.938,0" style="fill:none;stroke:rgb(211,198,252);stroke-width:1.05px;"/>
        </g>
        <g transform="matrix(1,0,0,1,612.812,348.67)">
            <path d="M0,-178.009L-270.533,-178.009C-282.758,-178.009 -292.668,-168.099 -292.668,-155.874L-292.668,-40.775C-292.668,-28.55 -282.758,-18.64 -270.533,-18.64L-166.463,-18.64L-147.823,0L-129.183,-18.64L0,-18.64C12.225,-18.64 22.135,-28.55 22.135,-40.775L22.135,-155.874C22.135,-168.099 12.225,-178.009 0,-178.009Z" style="fill:white;fill-rule:nonzero;stroke:rgb(26,201,255);stroke-width:1.05px;"/>
        </g>
        <g transform="matrix(1,0,0,1,393.863,216.988)">
            <path d="M0,0C0,12.769 -10.35,23.118 -23.118,23.118C-35.886,23.118 -46.236,12.769 -46.236,0C-46.236,-12.768 -35.886,-23.118 -23.118,-23.118C-10.35,-23.118 0,-12.768 0,0" style="fill:rgb(255,218,238);fill-rule:nonzero;"/>
        </g>
        <g transform="matrix(1,0,0,1,418.928,229.468)">
            <path d="M0,-33.479L4.243,-20.755L17.655,-20.859L6.865,-12.891L11.108,-0.167L0.197,-7.967L-10.593,0L-6.547,-12.788L-17.458,-20.587L-4.046,-20.691L0,-33.479Z" style="fill:rgb(250,175,59);fill-rule:nonzero;"/>
        </g>
        <g transform="matrix(1,0,0,1,461.648,229.468)">
            <path d="M0,-33.479L4.243,-20.755L17.655,-20.859L6.865,-12.891L11.108,-0.167L0.197,-7.967L-10.593,0L-6.547,-12.788L-17.458,-20.587L-4.046,-20.691L0,-33.479Z" style="fill:rgb(250,175,59);fill-rule:nonzero;"/>
        </g>
        <g transform="matrix(1,0,0,1,504.368,229.468)">
            <path d="M0,-33.479L4.243,-20.755L17.655,-20.859L6.865,-12.891L11.108,-0.167L0.197,-7.967L-10.593,0L-6.547,-12.788L-17.458,-20.587L-4.046,-20.691L0,-33.479Z" style="fill:rgb(250,175,59);fill-rule:nonzero;"/>
        </g>
        <g transform="matrix(1,0,0,1,547.087,229.468)">
            <path d="M0,-33.479L4.243,-20.755L17.655,-20.859L6.866,-12.891L11.108,-0.167L0.197,-7.967L-10.593,0L-6.547,-12.788L-17.458,-20.587L-4.046,-20.691L0,-33.479Z" style="fill:rgb(232,236,255);fill-rule:nonzero;"/>
        </g>
        <g transform="matrix(1,0,0,1,589.808,229.468)">
            <path d="M0,-33.479L4.243,-20.755L17.655,-20.859L6.865,-12.891L11.108,-0.167L0.197,-7.967L-10.593,0L-6.547,-12.788L-17.458,-20.587L-4.046,-20.691L0,-33.479Z" style="fill:rgb(232,236,255);fill-rule:nonzero;"/>
        </g>
        <g transform="matrix(-1,-0,-0,1,713.225,6.302)">
            <rect x="346.403" y="244.121" width="20.419" height="5.456" style="fill:rgb(187,171,248);"/>
        </g>
        <g transform="matrix(1,0,0,1,0,6.302)">
            <rect x="371.863" y="244.121" width="30.614" height="5.456" style="fill:rgb(187,171,248);"/>
        </g>
        <g transform="matrix(-1,-0,-0,1,736.845,38.72)">
            <rect x="346.402" y="227.912" width="44.041" height="5.456" style="fill:rgb(230,223,252);"/>
        </g>
        <g transform="matrix(-1,-0,-0,1,919.821,38.72)">
            <rect x="408.389" y="227.912" width="103.043" height="5.456" style="fill:rgb(230,223,252);"/>
        </g>
        <g transform="matrix(1,0,0,1,0,38.72)">
            <rect x="529.378" y="227.912" width="79.309" height="5.456" style="fill:rgb(230,223,252);"/>
        </g>
        <g transform="matrix(-1,-0,-0,1,791.261,73.454)">
            <rect x="346.402" y="210.545" width="98.457" height="5.456" style="fill:rgb(230,223,252);"/>
        </g>
        <g transform="matrix(1,0,0,1,0,73.454)">
            <rect x="559.481" y="210.545" width="49.206" height="5.456" style="fill:rgb(230,223,252);"/>
        </g>
        <g transform="matrix(-1,-0,-0,1,1009.55,73.454)">
            <rect x="461.648" y="210.545" width="86.255" height="5.456" style="fill:rgb(230,223,252);"/>
        </g>
        <g transform="matrix(-1,-0,-0,1,818.469,108.188)">
            <rect x="346.402" y="193.178" width="125.665" height="5.456" style="fill:rgb(230,223,252);"/>
        </g>
        <g transform="matrix(1,0,0,1,580.033,376.883)">
            <path d="M0,-0.001C0,14.868 -12.053,26.922 -26.922,26.922C-41.791,26.922 -53.844,14.868 -53.844,-0.001C-53.844,-14.869 -41.791,-26.923 -26.922,-26.923C-12.053,-26.923 0,-14.869 0,-0.001" style="fill:rgb(255,122,169);fill-rule:nonzero;"/>
        </g>
        <g transform="matrix(1,0,0,1,561.187,393.383)">
            <path d="M0,-26.654C-4.475,-26.654 -8.075,-23.027 -8.075,-18.553C-8.075,-23.027 -11.676,-26.654 -16.15,-26.654C-20.624,-26.654 -24.251,-23.027 -24.251,-18.553C-24.251,-8.46 -8.075,0 -8.075,0C-8.075,0 8.102,-8.46 8.102,-18.553C8.102,-23.027 4.475,-26.654 0,-26.654" style="fill:white;fill-rule:nonzero;"/>
        </g>
        <g transform="matrix(1,0,0,1,365.746,154.952)">
            <path d="M0,0.149C0.009,28.256 -22.844,51.129 -50.746,51.071C-79.087,51.011 -98.765,29.336 -101.42,6.469C-103.178,-8.673 -99.123,-22.142 -89.158,-33.561C-79.11,-45.075 -66.133,-50.98 -50.836,-50.953C-23.084,-50.902 0.166,-28.41 0,0.149" style="fill:rgb(29,212,169);fill-rule:nonzero;"/>
        </g>
        <g transform="matrix(1,0,0,1,321.979,122.066)">
            <path d="M0,52.086C-4.491,52.086 -8.981,52.092 -13.472,52.082C-15.087,52.079 -15.679,51.561 -15.667,49.945C-15.61,42.941 -15.987,35.927 -15.47,28.936C-15.138,24.44 -13.361,20.413 -10.583,16.848C-8.702,14.435 -6.736,12.096 -4.541,9.961C-3.832,9.272 -3.474,8.49 -3.49,7.489C-3.508,6.29 -3.392,5.089 -3.42,3.891C-3.456,2.393 -2.964,1.149 -1.558,0.584C-0.093,-0.006 1.341,0.296 2.529,1.406C3.686,2.487 4.135,3.936 4.493,5.406C5.413,9.183 4.701,12.769 3.146,16.244C2.626,17.408 2.153,18.596 1.571,19.728C1.19,20.469 1.485,20.73 2.145,20.833C2.485,20.887 2.839,20.863 3.188,20.862C7.213,20.855 11.24,20.842 15.266,20.837C17.455,20.834 18.953,21.882 19.473,23.762C20.055,25.867 19.214,28.28 17.444,29.226C16.648,29.65 16.672,29.831 17.367,30.318C18.838,31.351 19.819,32.66 19.519,34.615C19.292,36.091 18.561,37.11 17.107,37.575C16.833,37.663 16.411,37.638 16.357,37.999C16.301,38.374 16.741,38.435 16.97,38.606C18.903,40.047 19.162,43.892 16.324,45.066C15.778,45.292 15.536,45.426 16.113,45.98C17.361,47.177 17.373,48.706 16.79,50.174C16.224,51.598 14.947,52.034 13.472,52.029C8.981,52.014 4.491,52.024 0,52.024L0,52.086Z" style="fill:rgb(253,253,254);fill-rule:nonzero;"/>
        </g>
        <g transform="matrix(1,0,0,1,300.884,149.267)">
            <path d="M0,28.89C-3.713,28.901 -7.426,28.907 -11.139,28.927C-12.245,28.933 -12.758,28.315 -12.874,27.307C-12.936,26.772 -12.902,26.225 -12.902,25.684C-12.9,17.909 -12.9,10.132 -12.89,2.357C-12.887,0.439 -12.406,-0.028 -10.473,-0.031C-7.146,-0.037 -3.819,-0.043 -0.492,-0.029C0.842,-0.023 1.525,0.558 1.527,1.829C1.535,9.99 1.508,18.151 1.492,26.312C1.492,26.349 1.47,26.386 1.458,26.423C1.25,26.489 1.274,26.563 1.45,26.644C1.514,27.523 1.489,28.36 0.476,28.738C0.446,28.494 0.362,28.223 0.076,28.308C-0.252,28.406 0.045,28.693 0,28.89" style="fill:rgb(253,253,254);fill-rule:nonzero;"/>
        </g>
        <g>
            <clipPath id="_clip1">
                <rect x="67.116" y="206.76" width="359.518" height="232.657" clip-rule="nonzero"/>
            </clipPath>
            <g clip-path="url(#_clip1)">
                <g transform="matrix(1,0,0,1,262.54,312.305)">
                    <path d="M0,-69.325C1.421,-62.17 1.029,-54.794 1.576,-47.52C2.123,-40.246 3.785,-32.693 8.566,-27.184C12.62,-22.513 18.692,-19.572 21.584,-14.105C23.783,-9.95 23.744,-4.833 22.107,-0.426C20.469,3.982 17.36,7.726 13.753,10.74C1.333,21.119 -17.263,22.789 -31.967,16.024C-46.67,9.258 -57.241,-5.159 -60.716,-20.967C-64.191,-36.774 -60.93,-53.689 -53.135,-67.874C-48.732,-75.887 -42.675,-83.324 -34.508,-87.433C-27.757,-90.832 -17.608,-92.114 -10.785,-88.005C-4.936,-84.482 -1.25,-75.616 0,-69.325" style="fill:rgb(69,40,40);fill-rule:nonzero;"/>
                </g>
                <g transform="matrix(1,0,0,1,379.581,408.48)">
                    <path d="M0,-2.946C0,-2.946 -2.64,2.735 -9.357,-0.655L-13.753,7.649L-2.793,13.45L5.166,-1.585L2.019,-16.396C2.019,-16.396 -0.956,-15.223 -0.875,-12.042C-0.793,-8.859 0,-2.946 0,-2.946" style="fill:rgb(145,80,70);fill-rule:nonzero;"/>
                </g>
                <g transform="matrix(0.660329,-0.750976,-0.750976,-0.660329,391.831,415.48)">
                    <path d="M-8.587,-4.577C-5.957,-2.333 -4.756,1.199 -5.57,4.612L-8.587,17.244L-13.517,16.067L-8.587,-4.577Z" style="fill:rgb(153,79,57);fill-rule:nonzero;"/>
                </g>
                <g transform="matrix(0.646069,-0.763279,-0.763279,-0.646069,395.046,419.6)">
                    <path d="M-9.452,-5.078C-6.78,-2.884 -5.513,0.625 -6.264,4.051L-9.452,18.615L-14.403,17.531L-9.452,-5.078Z" style="fill:rgb(171,105,85);fill-rule:nonzero;"/>
                </g>
                <g transform="matrix(1,0,0,1,377.383,408.168)">
                    <path d="M0,-30.197L3.827,-18.72L15.925,-18.814L6.192,-11.628L10.02,-0.151L0.178,-7.186L-9.554,0L-5.905,-11.534L-15.747,-18.569L-3.649,-18.663L0,-30.197Z" style="fill:rgb(250,175,59);fill-rule:nonzero;"/>
                </g>
                <g transform="matrix(1,0,0,1,369.989,413.475)">
                    <path d="M0,-5.759L0.559,-9.78L5.204,-13.444C6.612,-14.555 7.437,-16.246 7.444,-18.04L7.445,-18.494L-6.725,-13.44L-12.901,-6.129L-16.886,1.398L4.533,12.735L5.987,9.987C8.859,4.561 6.79,-2.165 1.363,-5.037L0,-5.759Z" style="fill:rgb(181,122,104);fill-rule:nonzero;"/>
                </g>
                <g transform="matrix(0.64609,-0.763261,-0.763261,-0.64609,391.795,423.678)">
                    <path d="M-9.452,-5.078C-6.78,-2.884 -5.513,0.625 -6.264,4.052L-9.452,18.614L-14.404,17.53L-9.452,-5.078Z" style="fill:rgb(181,122,104);fill-rule:nonzero;"/>
                </g>
                <g transform="matrix(-0.685805,0.727785,0.727785,0.685805,367.497,413.665)">
                    <path d="M-6.204,-2.678C-3.778,-2.238 -1.27,-2.238 1.156,-2.678" style="fill:none;stroke:rgb(161,85,69);stroke-width:1.87px;stroke-linecap:round;stroke-linejoin:round;"/>
                </g>
                <g transform="matrix(0.999868,0.0162199,0.0162199,-0.999868,293.381,406.812)">
                    <path d="M-0.174,-0.428L65.055,-0.428L64.946,-9.38L-12.462,-22.488L-0.174,-0.428Z" style="fill:rgb(181,122,104);fill-rule:nonzero;"/>
                </g>
                <g transform="matrix(1,0,0,1,232.819,435.991)">
                    <path d="M0,-112.522L19.132,-112.522C28.159,-112.522 36.187,-106.784 39.107,-98.242L66.907,-16.941C66.907,-16.941 64.973,-1.899 53.211,-0.518C48.793,0 44.543,-2.42 42.47,-6.355L0,-86.931L0,-112.522Z" style="fill:rgb(56,55,87);fill-rule:nonzero;"/>
                </g>
                <g transform="matrix(1,0,0,1,281.296,436.881)">
                    <path d="M0,-30.976L62.929,-28.856L42.21,-2.692L2.45,-0.315C-2.808,0 -6.839,-4.914 -5.502,-10.009L-2.9,-19.925L0,-30.976Z" style="fill:rgb(56,55,87);fill-rule:nonzero;"/>
                </g>
                <g transform="matrix(-0.715759,0.698348,0.698348,0.715759,286.163,423.377)">
                    <path d="M-16.309,-6.638C-10.454,-8.005 -2.97,-8.628 2.702,-6.638" style="fill:none;stroke:rgb(71,68,99);stroke-width:1.87px;stroke-linecap:round;"/>
                </g>
                <g transform="matrix(-0.960624,0.277853,0.277853,0.960624,274.621,415.586)">
                    <path d="M-20.167,-2.858C-13.689,-4.457 -5.541,-5.886 0.405,-2.858" style="fill:none;stroke:rgb(71,68,99);stroke-width:1.87px;stroke-linecap:round;"/>
                </g>
                <g transform="matrix(1,0,0,1,184.083,387.24)">
                    <path d="M0,57.747L-15.785,-51.085L-7.859,-63.916L64.449,-63.916L84.324,-10.377C84.324,-10.377 67.708,41.132 67.708,60.239L86.003,113.355L64.403,121.663L47.77,70.624L29.493,121.302L-27.416,97.624L0,57.747Z" style="fill:rgb(71,68,99);fill-rule:nonzero;"/>
                </g>
                <g transform="matrix(1,0,0,1,168.298,402.068)">
                    <path d="M0,-65.913L8.026,-78.907L18.377,-78.907L21.426,-53.008L11.444,12.994L0,-65.913Z" style="fill:rgb(56,55,87);fill-rule:nonzero;"/>
                </g>
                <g transform="matrix(1,0,0,1,245.166,384.929)">
                    <path d="M0,-61.246L0,0L-51.302,-61.246L0,-61.246Z" style="fill:white;fill-rule:nonzero;"/>
                </g>
                <g transform="matrix(1,0,0,1,213.72,325.657)">
                    <path d="M0,12.756C-3.604,11.899 -7.108,10.689 -10.495,9.201L-20.294,-2.497L31.446,-2.497L31.446,6.491C24.196,15.045 10.487,15.253 0,12.756" style="fill:rgb(181,122,104);fill-rule:nonzero;"/>
                </g>
                <g transform="matrix(1,0,0,1,193.426,387.142)">
                    <path d="M0,-63.982L0,-25.724L21.939,-25.724L9.753,0L53.321,-0.315L0,-63.982Z" style="fill:rgb(97,95,127);fill-rule:nonzero;"/>
                </g>
                <g transform="matrix(1,0,0,1,245.166,387.142)">
                    <path d="M0,-63.982L3.305,-63.982L28.95,-25.724L8.696,-25.724L30.555,0L1.581,0L0.298,0L0,-63.982Z" style="fill:rgb(97,95,127);fill-rule:nonzero;"/>
                </g>
                <g transform="matrix(-0.188628,0.982049,0.982049,0.188628,271.896,435.488)">
                    <path d="M-42.541,-35.148C-18.693,-35.598 5.191,-34.698 29.039,-35.148" style="fill:none;stroke:rgb(56,55,87);stroke-width:1.86px;"/>
                </g>
                <g transform="matrix(1,0,0,1,189.724,440.145)">
                    <path d="M0,-116.997L-19.132,-116.997C-28.159,-116.997 -36.187,-111.258 -39.107,-102.717L-66.907,-21.416C-66.907,-21.416 -66.59,-15.395 -63.795,-10.253C-59.356,-2.085 -48.362,0 -43.988,-8.202L0,-91.406L0,-116.997Z" style="fill:rgb(71,68,99);fill-rule:nonzero;"/>
                </g>
                <g transform="matrix(1,0,0,1,216.331,404.713)">
                    <path d="M0,5.802L5.251,10.348L17.816,13.226L17.753,12.776C17.505,10.999 16.461,9.434 14.917,8.523L11.766,5.996L12.672,2.514L17.964,-1.879L11.552,-7.424L-2.14,1.588L0,5.802Z" style="fill:rgb(145,80,70);fill-rule:nonzero;"/>
                </g>
                <g transform="matrix(1,0,0,1,228.568,432.737)">
                    <path d="M0,-31.158L8.751,-22.805L19.4,-28.548L14.16,-17.643L22.912,-9.291L10.922,-10.904L5.683,0L3.512,-11.901L-8.478,-13.514L2.17,-19.257L0,-31.158Z" style="fill:rgb(250,175,59);fill-rule:nonzero;"/>
                </g>
                <g transform="matrix(1,0,0,1,236.46,400.889)">
                    <path d="M0,5.12C0,5.12 -2.698,0.909 -7.65,4.311L-12.019,-1.787L-3.083,-8.031L4.828,3.011L3.057,13.151C3.057,13.151 0.578,12.543 0.301,10.016C0.024,7.49 0,5.12 0,5.12" style="fill:rgb(145,80,70);fill-rule:nonzero;"/>
                </g>
                <g transform="matrix(1,0,0,1,216.894,389.48)">
                    <path d="M0,21.985L-5.216,14.992L14.179,0L15.989,2.527C19.564,7.518 19.389,12.011 16.312,14.436L12.109,17.747L0,21.985Z" style="fill:rgb(181,122,104);fill-rule:nonzero;"/>
                </g>
                <g transform="matrix(1,0,0,1,245.393,404.044)">
                    <path d="M0,-8.101C0.564,-8.24 1.032,-7.669 0.803,-7.135C-0.117,-4.99 -1.988,-3.346 -4.33,-2.77L-16.164,0.139L-17.153,-3.884L0,-8.101Z" style="fill:rgb(181,122,104);fill-rule:nonzero;"/>
                </g>
                <g transform="matrix(1,0,0,1,243.783,396.394)">
                    <path d="M0,-17.185C0.558,-17.634 1.378,-17.242 1.4,-16.526C1.492,-13.65 0.26,-10.837 -2.056,-8.973L-13.759,0.449L-16.962,-3.53L0,-17.185Z" style="fill:rgb(181,122,104);fill-rule:nonzero;"/>
                </g>
                <g transform="matrix(1,0,0,1,246.269,400.551)">
                    <path d="M0,-13.095C0.641,-13.414 1.357,-12.855 1.227,-12.151C0.699,-9.322 -1.107,-6.839 -3.769,-5.514L-15.485,0.319L-17.761,-4.253L0,-13.095Z" style="fill:rgb(181,122,104);fill-rule:nonzero;"/>
                </g>
                <g transform="matrix(1,0,0,1,143.325,437.836)">
                    <path d="M0,-35.56L64.186,-35.934L44.208,-8.08L-5.533,-0.594C-11.966,0.374 -17.42,-5.266 -16.28,-11.67C-14.453,-21.936 -10.144,-34.724 0,-35.56" style="fill:rgb(71,68,99);fill-rule:nonzero;"/>
                </g>
                <g transform="matrix(-0.999793,0.0203622,0.0203622,0.999793,139.745,402.872)">
                    <path d="M-21.017,-0.214L0.002,-0.214" style="fill:none;stroke:rgb(56,55,87);stroke-width:1.87px;stroke-linecap:round;"/>
                </g>
                <g transform="matrix(-0.966301,0.257416,0.257416,0.966301,139.948,410.75)">
                    <path d="M-22.312,-2.921L0.382,-2.921" style="fill:none;stroke:rgb(56,55,87);stroke-width:1.87px;stroke-linecap:round;"/>
                </g>
                <g transform="matrix(1,0,0,1,206.047,332.488)">
                    <path d="M0,-60.523L2.264,-4.066C2.355,-1.794 4.223,0 6.497,0L34.289,0C37.75,0 39.422,-4.188 36.947,-6.607C31.618,-11.817 26.216,-20.759 26.216,-35.602L26.216,-59.39L0,-60.523Z" style="fill:rgb(181,122,104);fill-rule:nonzero;"/>
                </g>
                <g transform="matrix(1,0,0,1,218.873,313.221)">
                    <path d="M0,-40.702L13.391,-40.123L13.391,-16.335C13.391,-9.808 14.439,-4.429 16.062,0C0.673,-5.233 -4.518,-25.852 0,-40.702" style="fill:rgb(145,80,70);fill-rule:nonzero;"/>
                </g>
                <g transform="matrix(1,0,0,1,212.907,228.406)">
                    <path d="M0,64.707C-1.878,63.438 -3.716,61.899 -5.475,60.19C-14.398,51.519 -19.722,39.787 -20.973,27.407C-22.135,15.896 -19.825,4.445 -10.271,-3.153C-0.042,-11.288 15.906,-11.999 27.427,-6.356C38.446,-0.957 44.505,9.31 46.759,21.066C47.877,26.898 48.194,32.857 48.273,38.785C48.422,49.886 46.699,71.21 33.939,73.868C20.161,76.706 10.107,71.531 0,64.707" style="fill:rgb(181,122,104);fill-rule:nonzero;"/>
                </g>
                <g transform="matrix(1,0,0,1,255.647,240.412)">
                    <path d="M0,4.139C3.663,9.374 4.71,15.945 5.661,22.263C7.944,14.161 7.947,5.43 5.67,-2.674C4.604,-6.466 3.006,-10.189 0.378,-13.122C-2.25,-16.054 -6.022,-18.124 -9.96,-18.057C-16.116,-17.954 -23.52,-9.472 -17.164,-4.348C-15.222,-2.783 -11.919,-3.104 -9.617,-2.488C-5.732,-1.447 -2.32,0.823 0,4.139" style="fill:rgb(69,40,40);fill-rule:nonzero;"/>
                </g>
                <g transform="matrix(1,0,0,1,240.903,291.39)">
                    <path d="M0,-42.174C-4.161,-38.4 -9.298,-35.902 -14.788,-34.741C-20.413,-33.553 -27.23,-33.882 -31.458,-29.38C-44.308,-15.697 -33.479,0.738 -26.931,14.539C-23.634,21.486 -20.22,29.555 -22.011,37.386C-24.301,47.405 -34.07,52.167 -43.674,52.207C-59.302,52.271 -71.415,40.661 -74.535,25.732C-76.15,18.002 -75.041,10.29 -72.041,3.057C-69.28,-3.6 -64.833,-9.478 -62.621,-16.376C-59.08,-27.413 -64.095,-39.046 -60.514,-50.264C-53.398,-72.558 -19.124,-94.445 1.772,-76.274C13.828,-65.79 9.906,-51.16 0,-42.174" style="fill:rgb(69,40,40);fill-rule:nonzero;"/>
                </g>
                <g transform="matrix(1,0,0,1,210.265,274.526)">
                    <path d="M0,-20.397C-2.811,-17.727 -4.646,-13.973 -5.046,-10.12C-5.502,-5.71 -4.31,-1.31 -2.12,2.575L0.739,2.073C1.041,-2.943 2.306,-7.944 3.886,-12.647C4.61,-14.804 5.478,-16.951 6.511,-19.013C5.659,-22.972 2.542,-22.812 0,-20.397" style="fill:rgb(69,40,40);fill-rule:nonzero;"/>
                </g>
                <g transform="matrix(1,0,0,1,248.078,281.986)">
                    <path d="M0,-16.643C0.828,-12.935 2.337,-9.381 4.429,-6.211C5.161,-5.102 6.005,-3.849 5.694,-2.557C5.402,-1.341 4.201,-0.604 3.105,0" style="fill:none;stroke:rgb(145,80,70);stroke-width:1.22px;stroke-linecap:round;"/>
                </g>
                <g transform="matrix(1,0,0,1,243.778,288.339)">
                    <path d="M0,1.093C0.302,2.815 1.942,3.965 3.663,3.663C5.384,3.361 6.534,1.721 6.232,0C5.93,-1.721 4.29,-2.872 2.569,-2.569C0.848,-2.267 -0.302,-0.628 0,1.093" style="fill:rgb(255,122,122);fill-rule:nonzero;"/>
                </g>
                <g transform="matrix(-0.997828,0.0658772,0.0658772,0.997828,240.752,289.696)">
                    <path d="M-11.104,-1.871C-7.692,-0.134 -3.45,-0.134 -0.038,-1.871" style="fill:none;stroke:rgb(145,80,70);stroke-width:1.22px;stroke-linecap:round;"/>
                </g>
                <g transform="matrix(-0.99153,0.129879,0.129879,0.99153,251.177,255.167)">
                    <path d="M-7.947,1.055C-5.339,-0.887 -2.354,-0.887 0.137,1.055" style="fill:none;stroke:rgb(69,40,40);stroke-width:1.82px;stroke-linecap:round;"/>
                </g>
                <g transform="matrix(-0.98677,0.162124,0.162124,0.98677,225.644,259.621)">
                    <path d="M-11.515,0.311C-7.805,-1.583 -3.516,-1.582 0.18,0.311" style="fill:none;stroke:rgb(69,40,40);stroke-width:1.82px;stroke-linecap:round;"/>
                </g>
                <g transform="matrix(1,0,0,1,236.346,267.822)">
                    <path d="M0,-0.975C0.27,0.561 -0.757,2.024 -2.293,2.294C-3.829,2.563 -5.292,1.537 -5.562,0.001C-5.832,-1.536 -4.805,-2.998 -3.269,-3.268C-1.733,-3.538 -0.27,-2.511 0,-0.975" style="fill:rgb(69,40,40);fill-rule:nonzero;"/>
                </g>
                <g transform="matrix(1,0,0,1,257.834,265.348)">
                    <path d="M0,-0.976C0.27,0.56 -0.757,2.024 -2.293,2.294C-3.829,2.563 -5.292,1.537 -5.562,0.001C-5.832,-1.536 -4.805,-2.999 -3.269,-3.269C-1.733,-3.539 -0.27,-2.511 0,-0.976" style="fill:rgb(69,40,40);fill-rule:nonzero;"/>
                </g>
                <g transform="matrix(1,0,0,1,207.495,287.789)">
                    <path d="M0,-17.455C-1.928,-19.095 -4.697,-19.983 -7.045,-19.039C-8.934,-18.279 -10.255,-16.434 -10.711,-14.449C-11.168,-12.466 -10.848,-10.367 -10.166,-8.449C-7.99,-2.336 -1.898,2.173 4.583,2.467C5.924,2.528 5.188,-8.207 4.989,-9.23C4.394,-12.295 2.367,-15.442 0,-17.455" style="fill:rgb(181,122,104);fill-rule:nonzero;"/>
                </g>
                <g transform="matrix(1,0,0,1,210.192,288.351)">
                    <path d="M0,-0.965C0.266,0.553 -0.749,1.999 -2.267,2.265C-3.784,2.532 -5.231,1.517 -5.497,0C-5.764,-1.519 -4.749,-2.965 -3.231,-3.232C-1.713,-3.497 -0.267,-2.483 0,-0.965" style="fill:white;fill-rule:nonzero;"/>
                </g>
                <g transform="matrix(1,0,0,1,200.936,282.653)">
                    <path d="M0,-9.563C1.106,-10.5 2.77,-10.614 4.103,-10.042C5.436,-9.471 6.451,-8.304 7.073,-6.994C7.695,-5.684 7.959,-4.234 8.113,-2.792C7.401,-3.464 6.202,-3.542 5.409,-2.967C4.617,-2.391 4.319,-1.227 4.739,-0.341C5.158,0.543 6.248,1.051 7.196,0.801" style="fill:none;stroke:rgb(145,80,70);stroke-width:1.22px;stroke-linecap:round;"/>
                </g>
            </g>
        </g>
    </g>
</svg>
