<svg width="78" height="78" viewBox="0 0 78 78" fill="none" xmlns="http://www.w3.org/2000/svg">
<circle cx="39" cy="39" r="39" fill="#0071E3"/>
<g clip-path="url(#clip0_2070_2171)">
<path d="M57.3393 28.1429V29.375C57.3393 29.5384 57.2744 29.6951 57.1588 29.8106C57.0433 29.9262 56.8866 29.9911 56.7232 29.9911H54.875V30.9152C54.875 31.4255 54.4612 31.8393 53.9509 31.8393H23.7634C23.2531 31.8393 22.8393 31.4255 22.8393 30.9152V29.9911H20.9911C20.8277 29.9911 20.671 29.9262 20.5554 29.8106C20.4399 29.6951 20.375 29.5384 20.375 29.375V28.1429C20.375 28.021 20.4112 27.9019 20.4789 27.8005C20.5466 27.6992 20.6429 27.6202 20.7555 27.5736L38.6216 20.7968C38.7724 20.7344 38.9419 20.7344 39.0927 20.7968L56.9588 27.5736C57.0714 27.6202 57.1677 27.6992 57.2354 27.8005C57.3031 27.9019 57.3393 28.021 57.3393 28.1429ZM55.4911 51.5536H22.2232C21.2025 51.5536 20.375 52.3811 20.375 53.4018V54.634C20.375 54.7973 20.4399 54.954 20.5554 55.0696C20.671 55.1851 20.8277 55.25 20.9911 55.25H56.7232C56.8866 55.25 57.0433 55.1851 57.1588 55.0696C57.2744 54.954 57.3393 54.7973 57.3393 54.634V53.4018C57.3393 52.3811 56.5118 51.5536 55.4911 51.5536ZM26.5357 33.0715V47.8572H23.7634C23.2531 47.8572 22.8393 48.2709 22.8393 48.7813V50.3215H54.875V48.7813C54.875 48.2709 54.4612 47.8572 53.9509 47.8572H51.1786V33.0715H46.25V47.8572H41.3214V33.0715H36.3929V47.8572H31.4643V33.0715H26.5357Z" fill="white"/>
</g>
<defs>
<clipPath id="clip0_2070_2171">
<rect width="37.7143" height="36" fill="white" transform="translate(20 20)"/>
</clipPath>
</defs>
</svg>
