<svg width="61" height="61" viewBox="0 0 61 61" fill="none" xmlns="http://www.w3.org/2000/svg">
<circle cx="30.5" cy="30.5" r="30" stroke="#4F94FB"/>
<path d="M49.75 20V21.25C49.75 21.4158 49.6842 21.5748 49.5669 21.692C49.4497 21.8092 49.2908 21.875 49.125 21.875H47.25V22.8125C47.25 23.3303 46.8302 23.75 46.3125 23.75H15.6875C15.1698 23.75 14.75 23.3303 14.75 22.8125V21.875H12.875C12.7092 21.875 12.5503 21.8092 12.4331 21.692C12.3158 21.5748 12.25 21.4158 12.25 21.25V20C12.25 19.8764 12.2867 19.7555 12.3554 19.6527C12.4241 19.5499 12.5218 19.4698 12.636 19.4225L30.761 12.5475C30.914 12.4842 31.086 12.4842 31.239 12.5475L49.364 19.4225C49.4782 19.4698 49.5759 19.5499 49.6446 19.6527C49.7133 19.7555 49.75 19.8764 49.75 20ZM47.875 43.75H14.125C13.0895 43.75 12.25 44.5895 12.25 45.625V46.875C12.25 47.0408 12.3158 47.1998 12.4331 47.317C12.5503 47.4342 12.7092 47.5 12.875 47.5H49.125C49.2908 47.5 49.4497 47.4342 49.5669 47.317C49.6842 47.1998 49.75 47.0408 49.75 46.875V45.625C49.75 44.5895 48.9105 43.75 47.875 43.75ZM18.5 25V40H15.6875C15.1698 40 14.75 40.4198 14.75 40.9375V42.5H47.25V40.9375C47.25 40.4198 46.8302 40 46.3125 40H43.5V25H38.5V40H33.5V25H28.5V40H23.5V25H18.5Z" fill="#0071E3"/>
</svg>
